<?xml version="1.0" encoding="UTF-8" standalone="no"?><svg xmlns="http://www.w3.org/2000/svg" xmlns:xlink="http://www.w3.org/1999/xlink" contentStyleType="text/css" height="1424px" preserveAspectRatio="none" style="width:3596px;height:1424px;background:#FFFFFF;" version="1.1" viewBox="0 0 3596 1424" width="3596px" zoomAndPan="magnify"><defs/><g><!--cluster com--><g id="cluster_com"><path d="M8.5,6 L43.5,6 A3.75,3.75 0 0 1 46,8.5 L53,28.2969 L3586.5,28.2969 A2.5,2.5 0 0 1 3589,30.7969 L3589,1414.5 A2.5,2.5 0 0 1 3586.5,1417 L8.5,1417 A2.5,2.5 0 0 1 6,1414.5 L6,8.5 A2.5,2.5 0 0 1 8.5,6 " fill="none" style="stroke:#000000;stroke-width:1.5;"/><line style="stroke:#000000;stroke-width:1.5;" x1="6" x2="53" y1="28.2969" y2="28.2969"/><text fill="#000000" font-family="sans-serif" font-size="14" font-weight="bold" lengthAdjust="spacing" textLength="34" x="10" y="20.9951">com</text></g><!--cluster lordoftherings--><g id="cluster_lordoftherings"><path d="M32.5,49 L150.5,49 A3.75,3.75 0 0 1 153,51.5 L160,71.2969 L3562.5,71.2969 A2.5,2.5 0 0 1 3565,73.7969 L3565,1390.5 A2.5,2.5 0 0 1 3562.5,1393 L32.5,1393 A2.5,2.5 0 0 1 30,1390.5 L30,51.5 A2.5,2.5 0 0 1 32.5,49 " fill="none" style="stroke:#000000;stroke-width:1.5;"/><line style="stroke:#000000;stroke-width:1.5;" x1="30" x2="160" y1="71.2969" y2="71.2969"/><text fill="#000000" font-family="sans-serif" font-size="14" font-weight="bold" lengthAdjust="spacing" textLength="117" x="34" y="63.9951">lordoftherings</text></g><!--cluster Creatures--><g id="cluster_Creatures"><path d="M1714.5,623 L1794.5,623 A3.75,3.75 0 0 1 1797,625.5 L1804,645.2969 L3538.5,645.2969 A2.5,2.5 0 0 1 3541,647.7969 L3541,1366.5 A2.5,2.5 0 0 1 3538.5,1369 L1714.5,1369 A2.5,2.5 0 0 1 1712,1366.5 L1712,625.5 A2.5,2.5 0 0 1 1714.5,623 " fill="none" style="stroke:#000000;stroke-width:1.5;"/><line style="stroke:#000000;stroke-width:1.5;" x1="1712" x2="1804" y1="645.2969" y2="645.2969"/><text fill="#000000" font-family="sans-serif" font-size="14" font-weight="bold" lengthAdjust="spacing" textLength="79" x="1716" y="637.9951">Creatures</text></g><!--cluster heroes--><g id="cluster_heroes"><path d="M1738.5,927 L1793.5,927 A3.75,3.75 0 0 1 1796,929.5 L1803,949.2969 L2798.5,949.2969 A2.5,2.5 0 0 1 2801,951.7969 L2801,1342.5 A2.5,2.5 0 0 1 2798.5,1345 L1738.5,1345 A2.5,2.5 0 0 1 1736,1342.5 L1736,929.5 A2.5,2.5 0 0 1 1738.5,927 " fill="none" style="stroke:#000000;stroke-width:1.5;"/><line style="stroke:#000000;stroke-width:1.5;" x1="1736" x2="1803" y1="949.2969" y2="949.2969"/><text fill="#000000" font-family="sans-serif" font-size="14" font-weight="bold" lengthAdjust="spacing" textLength="54" x="1740" y="941.9951">heroes</text></g><!--cluster beasts--><g id="cluster_beasts"><path d="M2827.5,943 L2883.5,943 A3.75,3.75 0 0 1 2886,945.5 L2893,965.2969 L3514.5,965.2969 A2.5,2.5 0 0 1 3517,967.7969 L3517,1326.5 A2.5,2.5 0 0 1 3514.5,1329 L2827.5,1329 A2.5,2.5 0 0 1 2825,1326.5 L2825,945.5 A2.5,2.5 0 0 1 2827.5,943 " fill="none" style="stroke:#000000;stroke-width:1.5;"/><line style="stroke:#000000;stroke-width:1.5;" x1="2825" x2="2893" y1="965.2969" y2="965.2969"/><text fill="#000000" font-family="sans-serif" font-size="14" font-weight="bold" lengthAdjust="spacing" textLength="55" x="2829" y="957.9951">beasts</text></g><!--cluster creatureFactory--><g id="cluster_creatureFactory"><path d="M626.5,417.5 L758.5,417.5 A3.75,3.75 0 0 1 761,420 L768,439.7969 L1685.5,439.7969 A2.5,2.5 0 0 1 1688,442.2969 L1688,825.5 A2.5,2.5 0 0 1 1685.5,828 L626.5,828 A2.5,2.5 0 0 1 624,825.5 L624,420 A2.5,2.5 0 0 1 626.5,417.5 " fill="none" style="stroke:#000000;stroke-width:1.5;"/><line style="stroke:#000000;stroke-width:1.5;" x1="624" x2="768" y1="439.7969" y2="439.7969"/><text fill="#000000" font-family="sans-serif" font-size="14" font-weight="bold" lengthAdjust="spacing" textLength="131" x="628" y="432.4951">creatureFactory</text></g><!--class LordOfTheRings--><g id="elem_LordOfTheRings"><rect codeLine="2" fill="#F1F1F1" height="227.2656" id="LordOfTheRings" rx="2.5" ry="2.5" style="stroke:#181818;stroke-width:0.5;" width="205" x="1054.5" y="84"/><ellipse cx="1095.6" cy="100" fill="#ADD1B2" rx="11" ry="11" style="stroke:#181818;stroke-width:1.0;"/><path d="M1097.9438,95.6719 C1097.0063,95.2344 1096.4125,95.0938 1095.5375,95.0938 C1092.9125,95.0938 1090.9125,97.1719 1090.9125,99.8906 L1090.9125,101.0156 C1090.9125,103.5938 1093.0219,105.4844 1095.9125,105.4844 C1097.1313,105.4844 1098.2875,105.1875 1099.0375,104.6406 C1099.6156,104.2344 1099.9438,103.7813 1099.9438,103.3906 C1099.9438,102.9375 1099.5531,102.5469 1099.0844,102.5469 C1098.8656,102.5469 1098.6625,102.625 1098.475,102.8125 C1098.0219,103.2969 1098.0219,103.2969 1097.8344,103.3906 C1097.4125,103.6563 1096.725,103.7813 1095.9594,103.7813 C1093.9125,103.7813 1092.6156,102.6875 1092.6156,100.9844 L1092.6156,99.8906 C1092.6156,98.1094 1093.8656,96.7969 1095.6,96.7969 C1096.1781,96.7969 1096.7875,96.9531 1097.2563,97.2031 C1097.7406,97.4844 1097.9125,97.7031 1098.0063,98.1094 C1098.0688,98.5156 1098.1,98.6406 1098.2406,98.7656 C1098.3813,98.9063 1098.6156,99.0156 1098.8344,99.0156 C1099.1,99.0156 1099.3656,98.875 1099.5375,98.6563 C1099.6469,98.5 1099.6781,98.3125 1099.6781,97.8906 L1099.6781,96.4688 C1099.6781,96.0313 1099.6625,95.9063 1099.5688,95.75 C1099.4125,95.4844 1099.1313,95.3438 1098.8344,95.3438 C1098.5375,95.3438 1098.3344,95.4375 1098.1156,95.75 L1097.9438,95.6719 Z " fill="#000000"/><text fill="#000000" font-family="sans-serif" font-size="14" lengthAdjust="spacing" textLength="115" x="1115.4" y="104.8467">LordOfTheRings</text><line style="stroke:#181818;stroke-width:0.5;" x1="1055.5" x2="1258.5" y1="116" y2="116"/><rect fill="none" height="6" style="stroke:#C82930;stroke-width:1.0;" width="6" x="1062.5" y="126.6484"/><text fill="#000000" font-family="sans-serif" font-size="14" lengthAdjust="spacing" textLength="122" x="1074.5" y="132.9951">Army heroeArmy</text><rect fill="none" height="6" style="stroke:#C82930;stroke-width:1.0;" width="6" x="1062.5" y="142.9453"/><text fill="#000000" font-family="sans-serif" font-size="14" lengthAdjust="spacing" textLength="121" x="1074.5" y="149.292">Army beastArmy</text><rect fill="none" height="6" style="stroke:#C82930;stroke-width:1.0;" width="6" x="1062.5" y="159.2422"/><text fill="#000000" font-family="sans-serif" font-size="14" lengthAdjust="spacing" textLength="66" x="1074.5" y="165.5889">Turn turn</text><rect fill="none" height="6" style="stroke:#C82930;stroke-width:1.0;" width="6" x="1062.5" y="175.5391"/><text fill="#000000" font-family="sans-serif" font-size="14" lengthAdjust="spacing" textLength="52" x="1074.5" y="181.8857">int size</text><rect fill="none" height="6" style="stroke:#C82930;stroke-width:1.0;" width="6" x="1062.5" y="191.8359"/><text fill="#000000" font-family="sans-serif" font-size="14" lengthAdjust="spacing" textLength="58" x="1074.5" y="198.1826">int type</text><rect fill="none" height="6" style="stroke:#C82930;stroke-width:1.0;" width="6" x="1062.5" y="208.1328"/><text fill="#000000" font-family="sans-serif" font-size="14" lengthAdjust="spacing" textLength="144" x="1074.5" y="214.4795">int shieldResistance</text><line style="stroke:#181818;stroke-width:0.5;" x1="1055.5" x2="1258.5" y1="221.7813" y2="221.7813"/><ellipse cx="1065.5" cy="235.4297" fill="#84BE84" rx="3" ry="3" style="stroke:#038048;stroke-width:1.0;"/><text fill="#000000" font-family="sans-serif" font-size="14" lengthAdjust="spacing" textLength="85" x="1074.5" y="238.7764">void setup()</text><ellipse cx="1065.5" cy="251.7266" fill="#84BE84" rx="3" ry="3" style="stroke:#038048;stroke-width:1.0;"/><text fill="#000000" font-family="sans-serif" font-size="14" lengthAdjust="spacing" textLength="102" x="1074.5" y="255.0732">void execute()</text><ellipse cx="1065.5" cy="268.0234" fill="#84BE84" rx="3" ry="3" style="stroke:#038048;stroke-width:1.0;"/><text fill="#000000" font-family="sans-serif" font-size="14" lengthAdjust="spacing" textLength="177" x="1074.5" y="271.3701">void createBeastsArmy()</text><ellipse cx="1065.5" cy="284.3203" fill="#84BE84" rx="3" ry="3" style="stroke:#038048;stroke-width:1.0;"/><text fill="#000000" font-family="sans-serif" font-size="14" lengthAdjust="spacing" textLength="179" x="1074.5" y="287.667">void createHeroesArmy()</text><ellipse cx="1065.5" cy="300.6172" fill="#84BE84" rx="3" ry="3" style="stroke:#038048;stroke-width:1.0;"/><text fill="#000000" font-family="sans-serif" font-size="14" lengthAdjust="spacing" textLength="153" x="1074.5" y="303.9639">void fillCreatureInfo()</text></g><!--class Turn--><g id="elem_Turn"><rect codeLine="17" fill="#F1F1F1" height="227.2656" id="Turn" rx="2.5" ry="2.5" style="stroke:#181818;stroke-width:0.5;" width="562" x="46" y="371"/><ellipse cx="306.75" cy="387" fill="#ADD1B2" rx="11" ry="11" style="stroke:#181818;stroke-width:1.0;"/><path d="M309.0938,382.6719 C308.1563,382.2344 307.5625,382.0938 306.6875,382.0938 C304.0625,382.0938 302.0625,384.1719 302.0625,386.8906 L302.0625,388.0156 C302.0625,390.5938 304.1719,392.4844 307.0625,392.4844 C308.2813,392.4844 309.4375,392.1875 310.1875,391.6406 C310.7656,391.2344 311.0938,390.7813 311.0938,390.3906 C311.0938,389.9375 310.7031,389.5469 310.2344,389.5469 C310.0156,389.5469 309.8125,389.625 309.625,389.8125 C309.1719,390.2969 309.1719,390.2969 308.9844,390.3906 C308.5625,390.6563 307.875,390.7813 307.1094,390.7813 C305.0625,390.7813 303.7656,389.6875 303.7656,387.9844 L303.7656,386.8906 C303.7656,385.1094 305.0156,383.7969 306.75,383.7969 C307.3281,383.7969 307.9375,383.9531 308.4063,384.2031 C308.8906,384.4844 309.0625,384.7031 309.1563,385.1094 C309.2188,385.5156 309.25,385.6406 309.3906,385.7656 C309.5313,385.9063 309.7656,386.0156 309.9844,386.0156 C310.25,386.0156 310.5156,385.875 310.6875,385.6563 C310.7969,385.5 310.8281,385.3125 310.8281,384.8906 L310.8281,383.4688 C310.8281,383.0313 310.8125,382.9063 310.7188,382.75 C310.5625,382.4844 310.2813,382.3438 309.9844,382.3438 C309.6875,382.3438 309.4844,382.4375 309.2656,382.75 L309.0938,382.6719 Z " fill="#000000"/><text fill="#000000" font-family="sans-serif" font-size="14" lengthAdjust="spacing" textLength="32" x="327.25" y="391.8467">Turn</text><line style="stroke:#181818;stroke-width:0.5;" x1="47" x2="607" y1="403" y2="403"/><rect fill="none" height="6" style="stroke:#C82930;stroke-width:1.0;" width="6" x="54" y="413.6484"/><text fill="#000000" font-family="sans-serif" font-size="14" lengthAdjust="spacing" textLength="122" x="66" y="419.9951">Army heroeArmy</text><rect fill="none" height="6" style="stroke:#C82930;stroke-width:1.0;" width="6" x="54" y="429.9453"/><text fill="#000000" font-family="sans-serif" font-size="14" lengthAdjust="spacing" textLength="121" x="66" y="436.292">Army beastArmy</text><rect fill="none" height="6" style="stroke:#C82930;stroke-width:1.0;" width="6" x="54" y="446.2422"/><text fill="#000000" font-family="sans-serif" font-size="14" lengthAdjust="spacing" textLength="220" x="66" y="452.5889">CombatHistory combatHistory</text><line style="stroke:#181818;stroke-width:0.5;" x1="47" x2="607" y1="459.8906" y2="459.8906"/><ellipse cx="57" cy="473.5391" fill="#84BE84" rx="3" ry="3" style="stroke:#038048;stroke-width:1.0;"/><text fill="#000000" font-family="sans-serif" font-size="14" lengthAdjust="spacing" textLength="293" x="66" y="476.8857">Turn(Army heroeArmy, Army beastArmy)</text><ellipse cx="57" cy="489.8359" fill="#84BE84" rx="3" ry="3" style="stroke:#038048;stroke-width:1.0;"/><text fill="#000000" font-family="sans-serif" font-size="14" lengthAdjust="spacing" textLength="100" x="66" y="493.1826">void combat()</text><ellipse cx="57" cy="506.1328" fill="#84BE84" rx="3" ry="3" style="stroke:#038048;stroke-width:1.0;"/><text fill="#000000" font-family="sans-serif" font-size="14" lengthAdjust="spacing" textLength="144" x="66" y="509.4795">void heroeVsBeast()</text><ellipse cx="57" cy="522.4297" fill="#84BE84" rx="3" ry="3" style="stroke:#038048;stroke-width:1.0;"/><text fill="#000000" font-family="sans-serif" font-size="14" lengthAdjust="spacing" textLength="421" x="66" y="525.7764">int calculateDamageDealt(Creature heroe, Creature beast)</text><ellipse cx="57" cy="538.7266" fill="#84BE84" rx="3" ry="3" style="stroke:#038048;stroke-width:1.0;"/><text fill="#000000" font-family="sans-serif" font-size="14" lengthAdjust="spacing" textLength="298" x="66" y="542.0732">boolean verifyArmyExistance(Army army)</text><ellipse cx="57" cy="555.0234" fill="#84BE84" rx="3" ry="3" style="stroke:#038048;stroke-width:1.0;"/><text fill="#000000" font-family="sans-serif" font-size="14" lengthAdjust="spacing" textLength="536" x="66" y="558.3701">hightLightBeforeCombat(Creature heroe, Creature beast, int turnNumber)</text><ellipse cx="57" cy="571.3203" fill="#84BE84" rx="3" ry="3" style="stroke:#038048;stroke-width:1.0;"/><text fill="#000000" font-family="sans-serif" font-size="14" lengthAdjust="spacing" textLength="415" x="66" y="574.667">hightLightAftereCombat(Creature heroe, Creature beast)</text><ellipse cx="57" cy="587.6172" fill="#84BE84" rx="3" ry="3" style="stroke:#038048;stroke-width:1.0;"/><text fill="#000000" font-family="sans-serif" font-size="14" lengthAdjust="spacing" textLength="242" x="66" y="590.9639">void showTurnResults(Army army)</text></g><!--class CombatHistory--><g id="elem_CombatHistory"><rect codeLine="32" fill="#F1F1F1" height="96.8906" id="CombatHistory" rx="2.5" ry="2.5" style="stroke:#181818;stroke-width:0.5;" width="293" x="180.5" y="149"/><ellipse cx="268.25" cy="165" fill="#ADD1B2" rx="11" ry="11" style="stroke:#181818;stroke-width:1.0;"/><path d="M270.5938,160.6719 C269.6563,160.2344 269.0625,160.0938 268.1875,160.0938 C265.5625,160.0938 263.5625,162.1719 263.5625,164.8906 L263.5625,166.0156 C263.5625,168.5938 265.6719,170.4844 268.5625,170.4844 C269.7813,170.4844 270.9375,170.1875 271.6875,169.6406 C272.2656,169.2344 272.5938,168.7813 272.5938,168.3906 C272.5938,167.9375 272.2031,167.5469 271.7344,167.5469 C271.5156,167.5469 271.3125,167.625 271.125,167.8125 C270.6719,168.2969 270.6719,168.2969 270.4844,168.3906 C270.0625,168.6563 269.375,168.7813 268.6094,168.7813 C266.5625,168.7813 265.2656,167.6875 265.2656,165.9844 L265.2656,164.8906 C265.2656,163.1094 266.5156,161.7969 268.25,161.7969 C268.8281,161.7969 269.4375,161.9531 269.9063,162.2031 C270.3906,162.4844 270.5625,162.7031 270.6563,163.1094 C270.7188,163.5156 270.75,163.6406 270.8906,163.7656 C271.0313,163.9063 271.2656,164.0156 271.4844,164.0156 C271.75,164.0156 272.0156,163.875 272.1875,163.6563 C272.2969,163.5 272.3281,163.3125 272.3281,162.8906 L272.3281,161.4688 C272.3281,161.0313 272.3125,160.9063 272.2188,160.75 C272.0625,160.4844 271.7813,160.3438 271.4844,160.3438 C271.1875,160.3438 270.9844,160.4375 270.7656,160.75 L270.5938,160.6719 Z " fill="#000000"/><text fill="#000000" font-family="sans-serif" font-size="14" lengthAdjust="spacing" textLength="109" x="288.75" y="169.8467">CombatHistory</text><line style="stroke:#181818;stroke-width:0.5;" x1="181.5" x2="472.5" y1="181" y2="181"/><rect fill="none" height="6" style="stroke:#C82930;stroke-width:1.0;" width="6" x="188.5" y="191.6484"/><text fill="#000000" font-family="sans-serif" font-size="14" lengthAdjust="spacing" textLength="234" x="200.5" y="197.9951">ArrayList&lt;String&gt; combatHisory</text><line style="stroke:#181818;stroke-width:0.5;" x1="181.5" x2="472.5" y1="205.2969" y2="205.2969"/><ellipse cx="191.5" cy="218.9453" fill="#84BE84" rx="3" ry="3" style="stroke:#038048;stroke-width:1.0;"/><text fill="#000000" font-family="sans-serif" font-size="14" lengthAdjust="spacing" textLength="221" x="200.5" y="222.292">void addToHistory(String item)</text><ellipse cx="191.5" cy="235.2422" fill="#84BE84" rx="3" ry="3" style="stroke:#038048;stroke-width:1.0;"/><text fill="#000000" font-family="sans-serif" font-size="14" lengthAdjust="spacing" textLength="267" x="200.5" y="238.5889">void showCombatHistory(Army army)</text></g><!--class Army--><g id="elem_Army"><rect codeLine="134" fill="#F1F1F1" height="162.0781" id="Army" rx="2.5" ry="2.5" style="stroke:#181818;stroke-width:0.5;" width="307" x="1909.5" y="403.5"/><ellipse cx="2039.75" cy="419.5" fill="#ADD1B2" rx="11" ry="11" style="stroke:#181818;stroke-width:1.0;"/><path d="M2042.0938,415.1719 C2041.1563,414.7344 2040.5625,414.5938 2039.6875,414.5938 C2037.0625,414.5938 2035.0625,416.6719 2035.0625,419.3906 L2035.0625,420.5156 C2035.0625,423.0938 2037.1719,424.9844 2040.0625,424.9844 C2041.2813,424.9844 2042.4375,424.6875 2043.1875,424.1406 C2043.7656,423.7344 2044.0938,423.2813 2044.0938,422.8906 C2044.0938,422.4375 2043.7031,422.0469 2043.2344,422.0469 C2043.0156,422.0469 2042.8125,422.125 2042.625,422.3125 C2042.1719,422.7969 2042.1719,422.7969 2041.9844,422.8906 C2041.5625,423.1563 2040.875,423.2813 2040.1094,423.2813 C2038.0625,423.2813 2036.7656,422.1875 2036.7656,420.4844 L2036.7656,419.3906 C2036.7656,417.6094 2038.0156,416.2969 2039.75,416.2969 C2040.3281,416.2969 2040.9375,416.4531 2041.4063,416.7031 C2041.8906,416.9844 2042.0625,417.2031 2042.1563,417.6094 C2042.2188,418.0156 2042.25,418.1406 2042.3906,418.2656 C2042.5313,418.4063 2042.7656,418.5156 2042.9844,418.5156 C2043.25,418.5156 2043.5156,418.375 2043.6875,418.1563 C2043.7969,418 2043.8281,417.8125 2043.8281,417.3906 L2043.8281,415.9688 C2043.8281,415.5313 2043.8125,415.4063 2043.7188,415.25 C2043.5625,414.9844 2043.2813,414.8438 2042.9844,414.8438 C2042.6875,414.8438 2042.4844,414.9375 2042.2656,415.25 L2042.0938,415.1719 Z " fill="#000000"/><text fill="#000000" font-family="sans-serif" font-size="14" lengthAdjust="spacing" textLength="38" x="2060.25" y="424.3467">Army</text><line style="stroke:#181818;stroke-width:0.5;" x1="1910.5" x2="2215.5" y1="435.5" y2="435.5"/><rect fill="none" height="6" style="stroke:#C82930;stroke-width:1.0;" width="6" x="1917.5" y="446.1484"/><text fill="#000000" font-family="sans-serif" font-size="14" lengthAdjust="spacing" textLength="125" x="1929.5" y="452.4951">String armyName</text><rect fill="none" height="6" style="stroke:#C82930;stroke-width:1.0;" width="6" x="1917.5" y="462.4453"/><text fill="#000000" font-family="sans-serif" font-size="14" lengthAdjust="spacing" textLength="189" x="1929.5" y="468.792">ArrayList&lt;Creature&gt; army</text><line style="stroke:#181818;stroke-width:0.5;" x1="1910.5" x2="2215.5" y1="476.0938" y2="476.0938"/><ellipse cx="1920.5" cy="489.7422" fill="#84BE84" rx="3" ry="3" style="stroke:#038048;stroke-width:1.0;"/><text fill="#000000" font-family="sans-serif" font-size="14" lengthAdjust="spacing" textLength="196" x="1929.5" y="493.0889">Army(String name, int size)</text><ellipse cx="1920.5" cy="506.0391" fill="#84BE84" rx="3" ry="3" style="stroke:#038048;stroke-width:1.0;"/><text fill="#000000" font-family="sans-serif" font-size="14" lengthAdjust="spacing" textLength="281" x="1929.5" y="509.3857">void insertIntoArmy(Creature creature)</text><ellipse cx="1920.5" cy="522.3359" fill="#84BE84" rx="3" ry="3" style="stroke:#038048;stroke-width:1.0;"/><text fill="#000000" font-family="sans-serif" font-size="14" lengthAdjust="spacing" textLength="226" x="1929.5" y="525.6826">ArrayList&lt;Creature&gt; getArmy()</text><ellipse cx="1920.5" cy="538.6328" fill="#84BE84" rx="3" ry="3" style="stroke:#038048;stroke-width:1.0;"/><text fill="#000000" font-family="sans-serif" font-size="14" lengthAdjust="spacing" textLength="127" x="1929.5" y="541.9795">int getArmySize()</text><ellipse cx="1920.5" cy="554.9297" fill="#84BE84" rx="3" ry="3" style="stroke:#038048;stroke-width:1.0;"/><text fill="#000000" font-family="sans-serif" font-size="14" lengthAdjust="spacing" textLength="162" x="1929.5" y="558.2764">String getArmyName()</text></g><!--class CreatureType--><g id="elem_CreatureType"><rect codeLine="40" fill="#F1F1F1" height="129.4844" id="CreatureType" rx="2.5" ry="2.5" style="stroke:#181818;stroke-width:0.5;" width="131" x="2943.5" y="715.5"/><ellipse cx="2958.5" cy="731.5" fill="#EB937F" rx="11" ry="11" style="stroke:#181818;stroke-width:1.0;"/><path d="M2957.2969,732.375 L2958.75,732.375 L2958.75,732.4844 C2958.75,732.8906 2958.7813,733.0469 2958.8594,733.2031 C2959.0156,733.4531 2959.2969,733.6094 2959.5938,733.6094 C2959.8438,733.6094 2960.1094,733.4688 2960.2656,733.25 C2960.3906,733.0938 2960.4219,732.9375 2960.4219,732.4844 L2960.4219,730.5625 C2960.4219,730.4063 2960.4219,730.3594 2960.4063,730.2031 C2960.3438,729.7344 2960.0313,729.4219 2959.5781,729.4219 C2959.3281,729.4219 2959.0625,729.5625 2958.8906,729.7813 C2958.7813,729.9531 2958.75,730.1094 2958.75,730.5625 L2958.75,730.6875 L2957.2969,730.6875 L2957.2969,728.2813 L2961.2813,728.2813 L2961.2813,729.1406 C2961.2813,729.5469 2961.3125,729.7188 2961.3906,729.875 C2961.5625,730.125 2961.8438,730.2813 2962.125,730.2813 C2962.3906,730.2813 2962.6563,730.1406 2962.8281,729.9219 C2962.9375,729.75 2962.9688,729.6094 2962.9688,729.1406 L2962.9688,726.5938 L2955.3438,726.5938 C2954.9063,726.5938 2954.7813,726.6094 2954.625,726.7031 C2954.375,726.8594 2954.2188,727.1563 2954.2188,727.4375 C2954.2188,727.7188 2954.3594,727.9688 2954.5781,728.1406 C2954.7344,728.25 2954.9219,728.2813 2955.3438,728.2813 L2955.5938,728.2813 L2955.5938,734.7969 L2955.3438,734.7969 C2954.9375,734.7969 2954.7813,734.8125 2954.625,734.9219 C2954.375,735.0938 2954.2188,735.3594 2954.2188,735.6563 C2954.2188,735.9219 2954.3594,736.1719 2954.5781,736.3281 C2954.7188,736.4531 2954.9531,736.5 2955.3438,736.5 L2963.3438,736.5 L2963.3438,733.9219 C2963.3438,733.4844 2963.3125,733.3438 2963.2344,733.1875 C2963.0625,732.9375 2962.7813,732.7813 2962.5,732.7813 C2962.2344,732.7813 2961.9688,732.8906 2961.7969,733.1406 C2961.6875,733.2969 2961.6563,733.4375 2961.6563,733.9219 L2961.6563,734.7969 L2957.2969,734.7969 L2957.2969,732.375 Z " fill="#000000"/><text fill="#000000" font-family="sans-serif" font-size="14" lengthAdjust="spacing" textLength="99" x="2972.5" y="736.3467">CreatureType</text><line style="stroke:#181818;stroke-width:0.5;" x1="2944.5" x2="3073.5" y1="747.5" y2="747.5"/><text fill="#000000" font-family="sans-serif" font-size="14" lengthAdjust="spacing" textLength="51" x="2949.5" y="764.4951">HUMAN</text><text fill="#000000" font-family="sans-serif" font-size="14" lengthAdjust="spacing" textLength="25" x="2949.5" y="780.792">ELF</text><text fill="#000000" font-family="sans-serif" font-size="14" lengthAdjust="spacing" textLength="54" x="2949.5" y="797.0889">HOBBIT</text><text fill="#000000" font-family="sans-serif" font-size="14" lengthAdjust="spacing" textLength="31" x="2949.5" y="813.3857">ORC</text><text fill="#000000" font-family="sans-serif" font-size="14" lengthAdjust="spacing" textLength="54" x="2949.5" y="829.6826">GOBLIN</text><line style="stroke:#181818;stroke-width:0.5;" x1="2944.5" x2="3073.5" y1="836.9844" y2="836.9844"/></g><!--class Creature--><g id="elem_Creature"><rect codeLine="48" fill="#F1F1F1" height="243.5625" id="Creature" rx="2.5" ry="2.5" style="stroke:#181818;stroke-width:0.5;" width="382" x="2077" y="658"/><ellipse cx="2232.25" cy="674" fill="#A9DCDF" rx="11" ry="11" style="stroke:#181818;stroke-width:1.0;"/><path d="M2234.3281,675.8125 L2234.7188,676.7969 L2234.3281,676.7969 C2233.875,676.7969 2233.7656,676.8125 2233.6094,676.9219 C2233.3594,677.0781 2233.2031,677.3594 2233.2031,677.6563 C2233.2031,677.9219 2233.3438,678.1719 2233.5625,678.3281 C2233.7031,678.4531 2233.9063,678.5 2234.3281,678.5 L2236.6875,678.5 C2237.0469,678.5 2237.2656,678.4688 2237.4063,678.375 C2237.6563,678.2344 2237.8125,677.9375 2237.8125,677.6563 C2237.8125,677.375 2237.6719,677.125 2237.4531,676.9688 C2237.2813,676.8281 2237.125,676.7969 2236.6563,676.7969 L2233.2656,668.5938 L2229.5938,668.5938 C2229.1406,668.5938 2229.0156,668.6094 2228.8594,668.7031 C2228.6094,668.875 2228.4531,669.1563 2228.4531,669.4375 C2228.4531,669.7188 2228.5938,669.9688 2228.8125,670.1406 C2228.9844,670.25 2229.1563,670.2813 2229.5938,670.2813 L2230.6719,670.2813 L2228.0313,676.7969 C2227.6094,676.7969 2227.4531,676.8125 2227.2969,676.9219 C2227.0469,677.0781 2226.8906,677.3594 2226.8906,677.6563 C2226.8906,678.2188 2227.2656,678.5 2228.0156,678.5 L2230.2813,678.5 C2230.6406,678.5 2230.8594,678.4688 2230.9844,678.375 C2231.25,678.2344 2231.3906,677.9375 2231.3906,677.6563 C2231.3906,677.375 2231.2656,677.125 2231.0469,676.9531 C2230.875,676.8281 2230.7344,676.7969 2230.2813,676.7969 L2229.8906,676.7969 L2230.2813,675.8125 L2234.3281,675.8125 Z M2233.625,674.1094 L2230.9531,674.1094 L2232.2969,670.8438 L2233.625,674.1094 Z " fill="#000000"/><text fill="#000000" font-family="sans-serif" font-size="14" font-style="italic" lengthAdjust="spacing" textLength="63" x="2252.75" y="678.8467">Creature</text><line style="stroke:#181818;stroke-width:0.5;" x1="2078" x2="2458" y1="690" y2="690"/><rect fill="none" height="6" style="stroke:#C82930;stroke-width:1.0;" width="6" x="2085" y="700.6484"/><text fill="#000000" font-family="sans-serif" font-size="14" lengthAdjust="spacing" textLength="88" x="2097" y="706.9951">String name</text><rect fill="none" height="6" style="stroke:#C82930;stroke-width:1.0;" width="6" x="2085" y="716.9453"/><text fill="#000000" font-family="sans-serif" font-size="14" lengthAdjust="spacing" textLength="92" x="2097" y="723.292">int lifePoints</text><rect fill="none" height="6" style="stroke:#C82930;stroke-width:1.0;" width="6" x="2085" y="733.2422"/><text fill="#000000" font-family="sans-serif" font-size="14" lengthAdjust="spacing" textLength="144" x="2097" y="739.5889">int shieldResistance</text><line style="stroke:#181818;stroke-width:0.5;" x1="2078" x2="2458" y1="746.8906" y2="746.8906"/><ellipse cx="2088" cy="760.5391" fill="#84BE84" rx="3" ry="3" style="stroke:#038048;stroke-width:1.0;"/><text fill="#000000" font-family="sans-serif" font-size="14" lengthAdjust="spacing" textLength="313" x="2097" y="763.8857">Creature(String name, int shieldResistance)</text><ellipse cx="2088" cy="776.8359" fill="#84BE84" rx="3" ry="3" style="stroke:#038048;stroke-width:1.0;"/><text fill="#000000" font-family="sans-serif" font-size="14" lengthAdjust="spacing" textLength="191" x="2097" y="780.1826">abstract boolean isHeroe()</text><ellipse cx="2088" cy="793.1328" fill="#84BE84" rx="3" ry="3" style="stroke:#038048;stroke-width:1.0;"/><text fill="#000000" font-family="sans-serif" font-size="14" lengthAdjust="spacing" textLength="180" x="2097" y="796.4795">abstract int throwDices()</text><ellipse cx="2088" cy="809.4297" fill="#84BE84" rx="3" ry="3" style="stroke:#038048;stroke-width:1.0;"/><text fill="#000000" font-family="sans-serif" font-size="14" lengthAdjust="spacing" textLength="196" x="2097" y="812.7764">abstract int getLifePoints()</text><ellipse cx="2088" cy="825.7266" fill="#84BE84" rx="3" ry="3" style="stroke:#038048;stroke-width:1.0;"/><text fill="#000000" font-family="sans-serif" font-size="14" lengthAdjust="spacing" textLength="246" x="2097" y="829.0732">abstract int getShieldResistance()</text><ellipse cx="2088" cy="842.0234" fill="#84BE84" rx="3" ry="3" style="stroke:#038048;stroke-width:1.0;"/><text fill="#000000" font-family="sans-serif" font-size="14" lengthAdjust="spacing" textLength="315" x="2097" y="845.3701">abstract void setNewLifePoints(int damage)</text><ellipse cx="2088" cy="858.3203" fill="#84BE84" rx="3" ry="3" style="stroke:#038048;stroke-width:1.0;"/><text fill="#000000" font-family="sans-serif" font-size="14" lengthAdjust="spacing" textLength="356" x="2097" y="861.667">abstract int attackOpponent(Creature character)</text><ellipse cx="2088" cy="874.6172" fill="#84BE84" rx="3" ry="3" style="stroke:#038048;stroke-width:1.0;"/><text fill="#000000" font-family="sans-serif" font-size="14" lengthAdjust="spacing" textLength="254" x="2097" y="877.9639">abstract Types getCharacterType()</text><ellipse cx="2088" cy="890.9141" fill="#84BE84" rx="3" ry="3" style="stroke:#038048;stroke-width:1.0;"/><text fill="#000000" font-family="sans-serif" font-size="14" lengthAdjust="spacing" textLength="124" x="2097" y="894.2607">String getName()</text></g><!--class Heroe--><g id="elem_Heroe"><rect codeLine="65" fill="#F1F1F1" height="129.4844" id="Heroe" rx="2.5" ry="2.5" style="stroke:#181818;stroke-width:0.5;" width="333" x="2101.5" y="962"/><ellipse cx="2241.75" cy="978" fill="#A9DCDF" rx="11" ry="11" style="stroke:#181818;stroke-width:1.0;"/><path d="M2243.8281,979.8125 L2244.2188,980.7969 L2243.8281,980.7969 C2243.375,980.7969 2243.2656,980.8125 2243.1094,980.9219 C2242.8594,981.0781 2242.7031,981.3594 2242.7031,981.6563 C2242.7031,981.9219 2242.8438,982.1719 2243.0625,982.3281 C2243.2031,982.4531 2243.4063,982.5 2243.8281,982.5 L2246.1875,982.5 C2246.5469,982.5 2246.7656,982.4688 2246.9063,982.375 C2247.1563,982.2344 2247.3125,981.9375 2247.3125,981.6563 C2247.3125,981.375 2247.1719,981.125 2246.9531,980.9688 C2246.7813,980.8281 2246.625,980.7969 2246.1563,980.7969 L2242.7656,972.5938 L2239.0938,972.5938 C2238.6406,972.5938 2238.5156,972.6094 2238.3594,972.7031 C2238.1094,972.875 2237.9531,973.1563 2237.9531,973.4375 C2237.9531,973.7188 2238.0938,973.9688 2238.3125,974.1406 C2238.4844,974.25 2238.6563,974.2813 2239.0938,974.2813 L2240.1719,974.2813 L2237.5313,980.7969 C2237.1094,980.7969 2236.9531,980.8125 2236.7969,980.9219 C2236.5469,981.0781 2236.3906,981.3594 2236.3906,981.6563 C2236.3906,982.2188 2236.7656,982.5 2237.5156,982.5 L2239.7813,982.5 C2240.1406,982.5 2240.3594,982.4688 2240.4844,982.375 C2240.75,982.2344 2240.8906,981.9375 2240.8906,981.6563 C2240.8906,981.375 2240.7656,981.125 2240.5469,980.9531 C2240.375,980.8281 2240.2344,980.7969 2239.7813,980.7969 L2239.3906,980.7969 L2239.7813,979.8125 L2243.8281,979.8125 Z M2243.125,978.1094 L2240.4531,978.1094 L2241.7969,974.8438 L2243.125,978.1094 Z " fill="#000000"/><text fill="#000000" font-family="sans-serif" font-size="14" font-style="italic" lengthAdjust="spacing" textLength="44" x="2262.25" y="982.8467">Heroe</text><line style="stroke:#181818;stroke-width:0.5;" x1="2102.5" x2="2433.5" y1="994" y2="994"/><line style="stroke:#181818;stroke-width:0.5;" x1="2102.5" x2="2433.5" y1="1002" y2="1002"/><ellipse cx="2112.5" cy="1015.6484" fill="#84BE84" rx="3" ry="3" style="stroke:#038048;stroke-width:1.0;"/><text fill="#000000" font-family="sans-serif" font-size="14" lengthAdjust="spacing" textLength="293" x="2121.5" y="1018.9951">Heroe(String name, int shieldResistance)</text><ellipse cx="2112.5" cy="1031.9453" fill="#84BE84" rx="3" ry="3" style="stroke:#038048;stroke-width:1.0;"/><text fill="#000000" font-family="sans-serif" font-size="14" lengthAdjust="spacing" textLength="126" x="2121.5" y="1035.292">boolean isHeroe()</text><ellipse cx="2112.5" cy="1048.2422" fill="#84BE84" rx="3" ry="3" style="stroke:#038048;stroke-width:1.0;"/><text fill="#000000" font-family="sans-serif" font-size="14" lengthAdjust="spacing" textLength="115" x="2121.5" y="1051.5889">int throwDices()</text><ellipse cx="2112.5" cy="1064.5391" fill="#84BE84" rx="3" ry="3" style="stroke:#038048;stroke-width:1.0;"/><text fill="#000000" font-family="sans-serif" font-size="14" lengthAdjust="spacing" textLength="303" x="2121.5" y="1067.8857">abstract boolean fears(Creature Creature)</text><ellipse cx="2112.5" cy="1080.8359" fill="#84BE84" rx="3" ry="3" style="stroke:#038048;stroke-width:1.0;"/><text fill="#000000" font-family="sans-serif" font-size="14" lengthAdjust="spacing" textLength="307" x="2121.5" y="1084.1826">abstract boolean hates(Creature Creature)</text></g><!--class Human--><g id="elem_Human"><rect codeLine="73" fill="#F1F1F1" height="178.375" id="Human" rx="2.5" ry="2.5" style="stroke:#181818;stroke-width:0.5;" width="325" x="1752.5" y="1151"/><ellipse cx="1886.25" cy="1167" fill="#ADD1B2" rx="11" ry="11" style="stroke:#181818;stroke-width:1.0;"/><path d="M1888.5938,1162.6719 C1887.6563,1162.2344 1887.0625,1162.0938 1886.1875,1162.0938 C1883.5625,1162.0938 1881.5625,1164.1719 1881.5625,1166.8906 L1881.5625,1168.0156 C1881.5625,1170.5938 1883.6719,1172.4844 1886.5625,1172.4844 C1887.7813,1172.4844 1888.9375,1172.1875 1889.6875,1171.6406 C1890.2656,1171.2344 1890.5938,1170.7813 1890.5938,1170.3906 C1890.5938,1169.9375 1890.2031,1169.5469 1889.7344,1169.5469 C1889.5156,1169.5469 1889.3125,1169.625 1889.125,1169.8125 C1888.6719,1170.2969 1888.6719,1170.2969 1888.4844,1170.3906 C1888.0625,1170.6563 1887.375,1170.7813 1886.6094,1170.7813 C1884.5625,1170.7813 1883.2656,1169.6875 1883.2656,1167.9844 L1883.2656,1166.8906 C1883.2656,1165.1094 1884.5156,1163.7969 1886.25,1163.7969 C1886.8281,1163.7969 1887.4375,1163.9531 1887.9063,1164.2031 C1888.3906,1164.4844 1888.5625,1164.7031 1888.6563,1165.1094 C1888.7188,1165.5156 1888.75,1165.6406 1888.8906,1165.7656 C1889.0313,1165.9063 1889.2656,1166.0156 1889.4844,1166.0156 C1889.75,1166.0156 1890.0156,1165.875 1890.1875,1165.6563 C1890.2969,1165.5 1890.3281,1165.3125 1890.3281,1164.8906 L1890.3281,1163.4688 C1890.3281,1163.0313 1890.3125,1162.9063 1890.2188,1162.75 C1890.0625,1162.4844 1889.7813,1162.3438 1889.4844,1162.3438 C1889.1875,1162.3438 1888.9844,1162.4375 1888.7656,1162.75 L1888.5938,1162.6719 Z " fill="#000000"/><text fill="#000000" font-family="sans-serif" font-size="14" lengthAdjust="spacing" textLength="49" x="1906.75" y="1171.8467">Human</text><line style="stroke:#181818;stroke-width:0.5;" x1="1753.5" x2="2076.5" y1="1183" y2="1183"/><line style="stroke:#181818;stroke-width:0.5;" x1="1753.5" x2="2076.5" y1="1191" y2="1191"/><ellipse cx="1763.5" cy="1204.6484" fill="#84BE84" rx="3" ry="3" style="stroke:#038048;stroke-width:1.0;"/><text fill="#000000" font-family="sans-serif" font-size="14" lengthAdjust="spacing" textLength="299" x="1772.5" y="1207.9951">Human(String name, int shieldResistance)</text><ellipse cx="1763.5" cy="1220.9453" fill="#84BE84" rx="3" ry="3" style="stroke:#038048;stroke-width:1.0;"/><text fill="#000000" font-family="sans-serif" font-size="14" lengthAdjust="spacing" textLength="108" x="1772.5" y="1224.292">boolean fears()</text><ellipse cx="1763.5" cy="1237.2422" fill="#84BE84" rx="3" ry="3" style="stroke:#038048;stroke-width:1.0;"/><text fill="#000000" font-family="sans-serif" font-size="14" lengthAdjust="spacing" textLength="112" x="1772.5" y="1240.5889">boolean hates()</text><ellipse cx="1763.5" cy="1253.5391" fill="#84BE84" rx="3" ry="3" style="stroke:#038048;stroke-width:1.0;"/><text fill="#000000" font-family="sans-serif" font-size="14" lengthAdjust="spacing" textLength="131" x="1772.5" y="1256.8857">int getLifePoints()</text><ellipse cx="1763.5" cy="1269.8359" fill="#84BE84" rx="3" ry="3" style="stroke:#038048;stroke-width:1.0;"/><text fill="#000000" font-family="sans-serif" font-size="14" lengthAdjust="spacing" textLength="181" x="1772.5" y="1273.1826">int getShieldResistance()</text><ellipse cx="1763.5" cy="1286.1328" fill="#84BE84" rx="3" ry="3" style="stroke:#038048;stroke-width:1.0;"/><text fill="#000000" font-family="sans-serif" font-size="14" lengthAdjust="spacing" textLength="250" x="1772.5" y="1289.4795">void setNewLifePoints(int damage)</text><ellipse cx="1763.5" cy="1302.4297" fill="#84BE84" rx="3" ry="3" style="stroke:#038048;stroke-width:1.0;"/><text fill="#000000" font-family="sans-serif" font-size="14" lengthAdjust="spacing" textLength="285" x="1772.5" y="1305.7764">int attackOpponent(Creature Creature)</text><ellipse cx="1763.5" cy="1318.7266" fill="#84BE84" rx="3" ry="3" style="stroke:#038048;stroke-width:1.0;"/><text fill="#000000" font-family="sans-serif" font-size="14" lengthAdjust="spacing" textLength="189" x="1772.5" y="1322.0732">Types getCharacterType()</text></g><!--class Elf--><g id="elem_Elf"><rect codeLine="84" fill="#F1F1F1" height="178.375" id="Elf" rx="2.5" ry="2.5" style="stroke:#181818;stroke-width:0.5;" width="311" x="2112.5" y="1151"/><ellipse cx="2254.25" cy="1167" fill="#ADD1B2" rx="11" ry="11" style="stroke:#181818;stroke-width:1.0;"/><path d="M2256.5938,1162.6719 C2255.6563,1162.2344 2255.0625,1162.0938 2254.1875,1162.0938 C2251.5625,1162.0938 2249.5625,1164.1719 2249.5625,1166.8906 L2249.5625,1168.0156 C2249.5625,1170.5938 2251.6719,1172.4844 2254.5625,1172.4844 C2255.7813,1172.4844 2256.9375,1172.1875 2257.6875,1171.6406 C2258.2656,1171.2344 2258.5938,1170.7813 2258.5938,1170.3906 C2258.5938,1169.9375 2258.2031,1169.5469 2257.7344,1169.5469 C2257.5156,1169.5469 2257.3125,1169.625 2257.125,1169.8125 C2256.6719,1170.2969 2256.6719,1170.2969 2256.4844,1170.3906 C2256.0625,1170.6563 2255.375,1170.7813 2254.6094,1170.7813 C2252.5625,1170.7813 2251.2656,1169.6875 2251.2656,1167.9844 L2251.2656,1166.8906 C2251.2656,1165.1094 2252.5156,1163.7969 2254.25,1163.7969 C2254.8281,1163.7969 2255.4375,1163.9531 2255.9063,1164.2031 C2256.3906,1164.4844 2256.5625,1164.7031 2256.6563,1165.1094 C2256.7188,1165.5156 2256.75,1165.6406 2256.8906,1165.7656 C2257.0313,1165.9063 2257.2656,1166.0156 2257.4844,1166.0156 C2257.75,1166.0156 2258.0156,1165.875 2258.1875,1165.6563 C2258.2969,1165.5 2258.3281,1165.3125 2258.3281,1164.8906 L2258.3281,1163.4688 C2258.3281,1163.0313 2258.3125,1162.9063 2258.2188,1162.75 C2258.0625,1162.4844 2257.7813,1162.3438 2257.4844,1162.3438 C2257.1875,1162.3438 2256.9844,1162.4375 2256.7656,1162.75 L2256.5938,1162.6719 Z " fill="#000000"/><text fill="#000000" font-family="sans-serif" font-size="14" lengthAdjust="spacing" textLength="19" x="2274.75" y="1171.8467">Elf</text><line style="stroke:#181818;stroke-width:0.5;" x1="2113.5" x2="2422.5" y1="1183" y2="1183"/><line style="stroke:#181818;stroke-width:0.5;" x1="2113.5" x2="2422.5" y1="1191" y2="1191"/><ellipse cx="2123.5" cy="1204.6484" fill="#84BE84" rx="3" ry="3" style="stroke:#038048;stroke-width:1.0;"/><text fill="#000000" font-family="sans-serif" font-size="14" lengthAdjust="spacing" textLength="269" x="2132.5" y="1207.9951">Elf(String name, int shieldResistance)</text><ellipse cx="2123.5" cy="1220.9453" fill="#84BE84" rx="3" ry="3" style="stroke:#038048;stroke-width:1.0;"/><text fill="#000000" font-family="sans-serif" font-size="14" lengthAdjust="spacing" textLength="108" x="2132.5" y="1224.292">boolean fears()</text><ellipse cx="2123.5" cy="1237.2422" fill="#84BE84" rx="3" ry="3" style="stroke:#038048;stroke-width:1.0;"/><text fill="#000000" font-family="sans-serif" font-size="14" lengthAdjust="spacing" textLength="112" x="2132.5" y="1240.5889">boolean hates()</text><ellipse cx="2123.5" cy="1253.5391" fill="#84BE84" rx="3" ry="3" style="stroke:#038048;stroke-width:1.0;"/><text fill="#000000" font-family="sans-serif" font-size="14" lengthAdjust="spacing" textLength="131" x="2132.5" y="1256.8857">int getLifePoints()</text><ellipse cx="2123.5" cy="1269.8359" fill="#84BE84" rx="3" ry="3" style="stroke:#038048;stroke-width:1.0;"/><text fill="#000000" font-family="sans-serif" font-size="14" lengthAdjust="spacing" textLength="181" x="2132.5" y="1273.1826">int getShieldResistance()</text><ellipse cx="2123.5" cy="1286.1328" fill="#84BE84" rx="3" ry="3" style="stroke:#038048;stroke-width:1.0;"/><text fill="#000000" font-family="sans-serif" font-size="14" lengthAdjust="spacing" textLength="250" x="2132.5" y="1289.4795">void setNewLifePoints(int damage)</text><ellipse cx="2123.5" cy="1302.4297" fill="#84BE84" rx="3" ry="3" style="stroke:#038048;stroke-width:1.0;"/><text fill="#000000" font-family="sans-serif" font-size="14" lengthAdjust="spacing" textLength="285" x="2132.5" y="1305.7764">int attackOpponent(Creature Creature)</text><ellipse cx="2123.5" cy="1318.7266" fill="#84BE84" rx="3" ry="3" style="stroke:#038048;stroke-width:1.0;"/><text fill="#000000" font-family="sans-serif" font-size="14" lengthAdjust="spacing" textLength="189" x="2132.5" y="1322.0732">Types getCharacterType()</text></g><!--class Hobbit--><g id="elem_Hobbit"><rect codeLine="95" fill="#F1F1F1" height="178.375" id="Hobbit" rx="2.5" ry="2.5" style="stroke:#181818;stroke-width:0.5;" width="326" x="2459" y="1151"/><ellipse cx="2592.75" cy="1167" fill="#ADD1B2" rx="11" ry="11" style="stroke:#181818;stroke-width:1.0;"/><path d="M2595.0938,1162.6719 C2594.1563,1162.2344 2593.5625,1162.0938 2592.6875,1162.0938 C2590.0625,1162.0938 2588.0625,1164.1719 2588.0625,1166.8906 L2588.0625,1168.0156 C2588.0625,1170.5938 2590.1719,1172.4844 2593.0625,1172.4844 C2594.2813,1172.4844 2595.4375,1172.1875 2596.1875,1171.6406 C2596.7656,1171.2344 2597.0938,1170.7813 2597.0938,1170.3906 C2597.0938,1169.9375 2596.7031,1169.5469 2596.2344,1169.5469 C2596.0156,1169.5469 2595.8125,1169.625 2595.625,1169.8125 C2595.1719,1170.2969 2595.1719,1170.2969 2594.9844,1170.3906 C2594.5625,1170.6563 2593.875,1170.7813 2593.1094,1170.7813 C2591.0625,1170.7813 2589.7656,1169.6875 2589.7656,1167.9844 L2589.7656,1166.8906 C2589.7656,1165.1094 2591.0156,1163.7969 2592.75,1163.7969 C2593.3281,1163.7969 2593.9375,1163.9531 2594.4063,1164.2031 C2594.8906,1164.4844 2595.0625,1164.7031 2595.1563,1165.1094 C2595.2188,1165.5156 2595.25,1165.6406 2595.3906,1165.7656 C2595.5313,1165.9063 2595.7656,1166.0156 2595.9844,1166.0156 C2596.25,1166.0156 2596.5156,1165.875 2596.6875,1165.6563 C2596.7969,1165.5 2596.8281,1165.3125 2596.8281,1164.8906 L2596.8281,1163.4688 C2596.8281,1163.0313 2596.8125,1162.9063 2596.7188,1162.75 C2596.5625,1162.4844 2596.2813,1162.3438 2595.9844,1162.3438 C2595.6875,1162.3438 2595.4844,1162.4375 2595.2656,1162.75 L2595.0938,1162.6719 Z " fill="#000000"/><text fill="#000000" font-family="sans-serif" font-size="14" lengthAdjust="spacing" textLength="50" x="2613.25" y="1171.8467">Hobbit</text><line style="stroke:#181818;stroke-width:0.5;" x1="2460" x2="2784" y1="1183" y2="1183"/><line style="stroke:#181818;stroke-width:0.5;" x1="2460" x2="2784" y1="1191" y2="1191"/><ellipse cx="2470" cy="1204.6484" fill="#84BE84" rx="3" ry="3" style="stroke:#038048;stroke-width:1.0;"/><text fill="#000000" font-family="sans-serif" font-size="14" lengthAdjust="spacing" textLength="300" x="2479" y="1207.9951">Hobbit(String name, int shieldResistance)</text><ellipse cx="2470" cy="1220.9453" fill="#84BE84" rx="3" ry="3" style="stroke:#038048;stroke-width:1.0;"/><text fill="#000000" font-family="sans-serif" font-size="14" lengthAdjust="spacing" textLength="108" x="2479" y="1224.292">boolean fears()</text><ellipse cx="2470" cy="1237.2422" fill="#84BE84" rx="3" ry="3" style="stroke:#038048;stroke-width:1.0;"/><text fill="#000000" font-family="sans-serif" font-size="14" lengthAdjust="spacing" textLength="112" x="2479" y="1240.5889">boolean hates()</text><ellipse cx="2470" cy="1253.5391" fill="#84BE84" rx="3" ry="3" style="stroke:#038048;stroke-width:1.0;"/><text fill="#000000" font-family="sans-serif" font-size="14" lengthAdjust="spacing" textLength="131" x="2479" y="1256.8857">int getLifePoints()</text><ellipse cx="2470" cy="1269.8359" fill="#84BE84" rx="3" ry="3" style="stroke:#038048;stroke-width:1.0;"/><text fill="#000000" font-family="sans-serif" font-size="14" lengthAdjust="spacing" textLength="181" x="2479" y="1273.1826">int getShieldResistance()</text><ellipse cx="2470" cy="1286.1328" fill="#84BE84" rx="3" ry="3" style="stroke:#038048;stroke-width:1.0;"/><text fill="#000000" font-family="sans-serif" font-size="14" lengthAdjust="spacing" textLength="250" x="2479" y="1289.4795">void setNewLifePoints(int damage)</text><ellipse cx="2470" cy="1302.4297" fill="#84BE84" rx="3" ry="3" style="stroke:#038048;stroke-width:1.0;"/><text fill="#000000" font-family="sans-serif" font-size="14" lengthAdjust="spacing" textLength="285" x="2479" y="1305.7764">int attackOpponent(Creature Creature)</text><ellipse cx="2470" cy="1318.7266" fill="#84BE84" rx="3" ry="3" style="stroke:#038048;stroke-width:1.0;"/><text fill="#000000" font-family="sans-serif" font-size="14" lengthAdjust="spacing" textLength="189" x="2479" y="1322.0732">Types getCharacterType()</text></g><!--class Beast--><g id="elem_Beast"><rect codeLine="108" fill="#F1F1F1" height="96.8906" id="Beast" rx="2.5" ry="2.5" style="stroke:#181818;stroke-width:0.5;" width="317" x="2841.5" y="978"/><ellipse cx="2975.75" cy="994" fill="#A9DCDF" rx="11" ry="11" style="stroke:#181818;stroke-width:1.0;"/><path d="M2977.8281,995.8125 L2978.2188,996.7969 L2977.8281,996.7969 C2977.375,996.7969 2977.2656,996.8125 2977.1094,996.9219 C2976.8594,997.0781 2976.7031,997.3594 2976.7031,997.6563 C2976.7031,997.9219 2976.8438,998.1719 2977.0625,998.3281 C2977.2031,998.4531 2977.4063,998.5 2977.8281,998.5 L2980.1875,998.5 C2980.5469,998.5 2980.7656,998.4688 2980.9063,998.375 C2981.1563,998.2344 2981.3125,997.9375 2981.3125,997.6563 C2981.3125,997.375 2981.1719,997.125 2980.9531,996.9688 C2980.7813,996.8281 2980.625,996.7969 2980.1563,996.7969 L2976.7656,988.5938 L2973.0938,988.5938 C2972.6406,988.5938 2972.5156,988.6094 2972.3594,988.7031 C2972.1094,988.875 2971.9531,989.1563 2971.9531,989.4375 C2971.9531,989.7188 2972.0938,989.9688 2972.3125,990.1406 C2972.4844,990.25 2972.6563,990.2813 2973.0938,990.2813 L2974.1719,990.2813 L2971.5313,996.7969 C2971.1094,996.7969 2970.9531,996.8125 2970.7969,996.9219 C2970.5469,997.0781 2970.3906,997.3594 2970.3906,997.6563 C2970.3906,998.2188 2970.7656,998.5 2971.5156,998.5 L2973.7813,998.5 C2974.1406,998.5 2974.3594,998.4688 2974.4844,998.375 C2974.75,998.2344 2974.8906,997.9375 2974.8906,997.6563 C2974.8906,997.375 2974.7656,997.125 2974.5469,996.9531 C2974.375,996.8281 2974.2344,996.7969 2973.7813,996.7969 L2973.3906,996.7969 L2973.7813,995.8125 L2977.8281,995.8125 Z M2977.125,994.1094 L2974.4531,994.1094 L2975.7969,990.8438 L2977.125,994.1094 Z " fill="#000000"/><text fill="#000000" font-family="sans-serif" font-size="14" font-style="italic" lengthAdjust="spacing" textLength="40" x="2996.25" y="998.8467">Beast</text><line style="stroke:#181818;stroke-width:0.5;" x1="2842.5" x2="3157.5" y1="1010" y2="1010"/><line style="stroke:#181818;stroke-width:0.5;" x1="2842.5" x2="3157.5" y1="1018" y2="1018"/><ellipse cx="2852.5" cy="1031.6484" fill="#84BE84" rx="3" ry="3" style="stroke:#038048;stroke-width:1.0;"/><text fill="#000000" font-family="sans-serif" font-size="14" lengthAdjust="spacing" textLength="291" x="2861.5" y="1034.9951">Beast(String name, int shieldResistance)</text><ellipse cx="2852.5" cy="1047.9453" fill="#84BE84" rx="3" ry="3" style="stroke:#038048;stroke-width:1.0;"/><text fill="#000000" font-family="sans-serif" font-size="14" lengthAdjust="spacing" textLength="126" x="2861.5" y="1051.292">boolean isHeroe()</text><ellipse cx="2852.5" cy="1064.2422" fill="#84BE84" rx="3" ry="3" style="stroke:#038048;stroke-width:1.0;"/><text fill="#000000" font-family="sans-serif" font-size="14" lengthAdjust="spacing" textLength="115" x="2861.5" y="1067.5889">int throwDices()</text></g><!--class Orc--><g id="elem_Orc"><rect codeLine="114" fill="#F1F1F1" height="145.7813" id="Orc" rx="2.5" ry="2.5" style="stroke:#181818;stroke-width:0.5;" width="301" x="2841.5" y="1167"/><ellipse cx="2975.25" cy="1183" fill="#ADD1B2" rx="11" ry="11" style="stroke:#181818;stroke-width:1.0;"/><path d="M2977.5938,1178.6719 C2976.6563,1178.2344 2976.0625,1178.0938 2975.1875,1178.0938 C2972.5625,1178.0938 2970.5625,1180.1719 2970.5625,1182.8906 L2970.5625,1184.0156 C2970.5625,1186.5938 2972.6719,1188.4844 2975.5625,1188.4844 C2976.7813,1188.4844 2977.9375,1188.1875 2978.6875,1187.6406 C2979.2656,1187.2344 2979.5938,1186.7813 2979.5938,1186.3906 C2979.5938,1185.9375 2979.2031,1185.5469 2978.7344,1185.5469 C2978.5156,1185.5469 2978.3125,1185.625 2978.125,1185.8125 C2977.6719,1186.2969 2977.6719,1186.2969 2977.4844,1186.3906 C2977.0625,1186.6563 2976.375,1186.7813 2975.6094,1186.7813 C2973.5625,1186.7813 2972.2656,1185.6875 2972.2656,1183.9844 L2972.2656,1182.8906 C2972.2656,1181.1094 2973.5156,1179.7969 2975.25,1179.7969 C2975.8281,1179.7969 2976.4375,1179.9531 2976.9063,1180.2031 C2977.3906,1180.4844 2977.5625,1180.7031 2977.6563,1181.1094 C2977.7188,1181.5156 2977.75,1181.6406 2977.8906,1181.7656 C2978.0313,1181.9063 2978.2656,1182.0156 2978.4844,1182.0156 C2978.75,1182.0156 2979.0156,1181.875 2979.1875,1181.6563 C2979.2969,1181.5 2979.3281,1181.3125 2979.3281,1180.8906 L2979.3281,1179.4688 C2979.3281,1179.0313 2979.3125,1178.9063 2979.2188,1178.75 C2979.0625,1178.4844 2978.7813,1178.3438 2978.4844,1178.3438 C2978.1875,1178.3438 2977.9844,1178.4375 2977.7656,1178.75 L2977.5938,1178.6719 Z " fill="#000000"/><text fill="#000000" font-family="sans-serif" font-size="14" lengthAdjust="spacing" textLength="25" x="2995.75" y="1187.8467">Orc</text><line style="stroke:#181818;stroke-width:0.5;" x1="2842.5" x2="3141.5" y1="1199" y2="1199"/><line style="stroke:#181818;stroke-width:0.5;" x1="2842.5" x2="3141.5" y1="1207" y2="1207"/><ellipse cx="2852.5" cy="1220.6484" fill="#84BE84" rx="3" ry="3" style="stroke:#038048;stroke-width:1.0;"/><text fill="#000000" font-family="sans-serif" font-size="14" lengthAdjust="spacing" textLength="275" x="2861.5" y="1223.9951">Orc(String name, int shieldResistance)</text><ellipse cx="2852.5" cy="1236.9453" fill="#84BE84" rx="3" ry="3" style="stroke:#038048;stroke-width:1.0;"/><text fill="#000000" font-family="sans-serif" font-size="14" lengthAdjust="spacing" textLength="131" x="2861.5" y="1240.292">int getLifePoints()</text><ellipse cx="2852.5" cy="1253.2422" fill="#84BE84" rx="3" ry="3" style="stroke:#038048;stroke-width:1.0;"/><text fill="#000000" font-family="sans-serif" font-size="14" lengthAdjust="spacing" textLength="181" x="2861.5" y="1256.5889">int getShieldResistance()</text><ellipse cx="2852.5" cy="1269.5391" fill="#84BE84" rx="3" ry="3" style="stroke:#038048;stroke-width:1.0;"/><text fill="#000000" font-family="sans-serif" font-size="14" lengthAdjust="spacing" textLength="250" x="2861.5" y="1272.8857">void setNewLifePoints(int damage)</text><ellipse cx="2852.5" cy="1285.8359" fill="#84BE84" rx="3" ry="3" style="stroke:#038048;stroke-width:1.0;"/><text fill="#000000" font-family="sans-serif" font-size="14" lengthAdjust="spacing" textLength="264" x="2861.5" y="1289.1826">int attackOpponent(Creature heroe)</text><ellipse cx="2852.5" cy="1302.1328" fill="#84BE84" rx="3" ry="3" style="stroke:#038048;stroke-width:1.0;"/><text fill="#000000" font-family="sans-serif" font-size="14" lengthAdjust="spacing" textLength="189" x="2861.5" y="1305.4795">Types getCharacterType()</text></g><!--class Goblin--><g id="elem_Goblin"><rect codeLine="123" fill="#F1F1F1" height="145.7813" id="Goblin" rx="2.5" ry="2.5" style="stroke:#181818;stroke-width:0.5;" width="323" x="3177.5" y="1167"/><ellipse cx="3311.25" cy="1183" fill="#ADD1B2" rx="11" ry="11" style="stroke:#181818;stroke-width:1.0;"/><path d="M3313.5938,1178.6719 C3312.6563,1178.2344 3312.0625,1178.0938 3311.1875,1178.0938 C3308.5625,1178.0938 3306.5625,1180.1719 3306.5625,1182.8906 L3306.5625,1184.0156 C3306.5625,1186.5938 3308.6719,1188.4844 3311.5625,1188.4844 C3312.7813,1188.4844 3313.9375,1188.1875 3314.6875,1187.6406 C3315.2656,1187.2344 3315.5938,1186.7813 3315.5938,1186.3906 C3315.5938,1185.9375 3315.2031,1185.5469 3314.7344,1185.5469 C3314.5156,1185.5469 3314.3125,1185.625 3314.125,1185.8125 C3313.6719,1186.2969 3313.6719,1186.2969 3313.4844,1186.3906 C3313.0625,1186.6563 3312.375,1186.7813 3311.6094,1186.7813 C3309.5625,1186.7813 3308.2656,1185.6875 3308.2656,1183.9844 L3308.2656,1182.8906 C3308.2656,1181.1094 3309.5156,1179.7969 3311.25,1179.7969 C3311.8281,1179.7969 3312.4375,1179.9531 3312.9063,1180.2031 C3313.3906,1180.4844 3313.5625,1180.7031 3313.6563,1181.1094 C3313.7188,1181.5156 3313.75,1181.6406 3313.8906,1181.7656 C3314.0313,1181.9063 3314.2656,1182.0156 3314.4844,1182.0156 C3314.75,1182.0156 3315.0156,1181.875 3315.1875,1181.6563 C3315.2969,1181.5 3315.3281,1181.3125 3315.3281,1180.8906 L3315.3281,1179.4688 C3315.3281,1179.0313 3315.3125,1178.9063 3315.2188,1178.75 C3315.0625,1178.4844 3314.7813,1178.3438 3314.4844,1178.3438 C3314.1875,1178.3438 3313.9844,1178.4375 3313.7656,1178.75 L3313.5938,1178.6719 Z " fill="#000000"/><text fill="#000000" font-family="sans-serif" font-size="14" lengthAdjust="spacing" textLength="47" x="3331.75" y="1187.8467">Goblin</text><line style="stroke:#181818;stroke-width:0.5;" x1="3178.5" x2="3499.5" y1="1199" y2="1199"/><line style="stroke:#181818;stroke-width:0.5;" x1="3178.5" x2="3499.5" y1="1207" y2="1207"/><ellipse cx="3188.5" cy="1220.6484" fill="#84BE84" rx="3" ry="3" style="stroke:#038048;stroke-width:1.0;"/><text fill="#000000" font-family="sans-serif" font-size="14" lengthAdjust="spacing" textLength="297" x="3197.5" y="1223.9951">Goblin(String name, int shieldResistance)</text><ellipse cx="3188.5" cy="1236.9453" fill="#84BE84" rx="3" ry="3" style="stroke:#038048;stroke-width:1.0;"/><text fill="#000000" font-family="sans-serif" font-size="14" lengthAdjust="spacing" textLength="131" x="3197.5" y="1240.292">int getLifePoints()</text><ellipse cx="3188.5" cy="1253.2422" fill="#84BE84" rx="3" ry="3" style="stroke:#038048;stroke-width:1.0;"/><text fill="#000000" font-family="sans-serif" font-size="14" lengthAdjust="spacing" textLength="181" x="3197.5" y="1256.5889">int getShieldResistance()</text><ellipse cx="3188.5" cy="1269.5391" fill="#84BE84" rx="3" ry="3" style="stroke:#038048;stroke-width:1.0;"/><text fill="#000000" font-family="sans-serif" font-size="14" lengthAdjust="spacing" textLength="250" x="3197.5" y="1272.8857">void setNewLifePoints(int damage)</text><ellipse cx="3188.5" cy="1285.8359" fill="#84BE84" rx="3" ry="3" style="stroke:#038048;stroke-width:1.0;"/><text fill="#000000" font-family="sans-serif" font-size="14" lengthAdjust="spacing" textLength="264" x="3197.5" y="1289.1826">int attackOpponent(Creature heroe)</text><ellipse cx="3188.5" cy="1302.1328" fill="#84BE84" rx="3" ry="3" style="stroke:#038048;stroke-width:1.0;"/><text fill="#000000" font-family="sans-serif" font-size="14" lengthAdjust="spacing" textLength="189" x="3197.5" y="1305.4795">Types getCharacterType()</text></g><!--class AbstractCreatureFactory--><g id="elem_AbstractCreatureFactory"><rect codeLine="146" fill="#F1F1F1" height="64.2969" id="AbstractCreatureFactory" rx="2.5" ry="2.5" style="stroke:#181818;stroke-width:0.5;" width="505" x="904.5" y="452.5"/><ellipse cx="1065.25" cy="468.5" fill="#B4A7E5" rx="11" ry="11" style="stroke:#181818;stroke-width:1.0;"/><path d="M1066.2031,465.2813 L1067.9219,465.2813 C1068.3125,465.2813 1068.5,465.25 1068.625,465.1719 C1068.8906,465.0156 1069.0313,464.7344 1069.0313,464.4375 C1069.0313,464.1719 1068.9219,463.9063 1068.6875,463.7344 C1068.5156,463.625 1068.375,463.5938 1067.9219,463.5938 L1062.7813,463.5938 C1062.3438,463.5938 1062.2188,463.6094 1062.0625,463.7031 C1061.8125,463.8594 1061.6563,464.1563 1061.6563,464.4375 C1061.6563,464.7188 1061.7969,464.9688 1062.0156,465.1406 C1062.1719,465.25 1062.3594,465.2813 1062.7813,465.2813 L1064.5,465.2813 L1064.5,471.7969 L1062.7813,471.7969 C1062.3438,471.7969 1062.2188,471.8125 1062.0625,471.9219 C1061.8125,472.0781 1061.6563,472.3594 1061.6563,472.6563 C1061.6563,472.9063 1061.7969,473.1719 1062.0156,473.3281 C1062.1719,473.4531 1062.375,473.5 1062.7813,473.5 L1067.9219,473.5 C1068.6719,473.5 1069.0313,473.2188 1069.0313,472.6563 C1069.0313,472.375 1068.9219,472.125 1068.6875,471.9531 C1068.5156,471.8281 1068.375,471.7969 1067.9219,471.7969 L1066.2031,471.7969 L1066.2031,465.2813 Z " fill="#000000"/><text fill="#000000" font-family="sans-serif" font-size="14" font-style="italic" lengthAdjust="spacing" textLength="175" x="1085.75" y="473.3467">AbstractCreatureFactory</text><line style="stroke:#181818;stroke-width:0.5;" x1="905.5" x2="1408.5" y1="484.5" y2="484.5"/><line style="stroke:#181818;stroke-width:0.5;" x1="905.5" x2="1408.5" y1="492.5" y2="492.5"/><text fill="#000000" font-family="sans-serif" font-size="14" lengthAdjust="spacing" textLength="493" x="910.5" y="509.4951">Creature createCreature(int type, String name, int shieldResistance)</text></g><!--class HeroesFactory--><g id="elem_HeroesFactory"><rect codeLine="150" fill="#F1F1F1" height="64.2969" id="HeroesFactory" rx="2.5" ry="2.5" style="stroke:#181818;stroke-width:0.5;" width="499" x="640.5" y="748"/><ellipse cx="833.75" cy="764" fill="#ADD1B2" rx="11" ry="11" style="stroke:#181818;stroke-width:1.0;"/><path d="M836.0938,759.6719 C835.1563,759.2344 834.5625,759.0938 833.6875,759.0938 C831.0625,759.0938 829.0625,761.1719 829.0625,763.8906 L829.0625,765.0156 C829.0625,767.5938 831.1719,769.4844 834.0625,769.4844 C835.2813,769.4844 836.4375,769.1875 837.1875,768.6406 C837.7656,768.2344 838.0938,767.7813 838.0938,767.3906 C838.0938,766.9375 837.7031,766.5469 837.2344,766.5469 C837.0156,766.5469 836.8125,766.625 836.625,766.8125 C836.1719,767.2969 836.1719,767.2969 835.9844,767.3906 C835.5625,767.6563 834.875,767.7813 834.1094,767.7813 C832.0625,767.7813 830.7656,766.6875 830.7656,764.9844 L830.7656,763.8906 C830.7656,762.1094 832.0156,760.7969 833.75,760.7969 C834.3281,760.7969 834.9375,760.9531 835.4063,761.2031 C835.8906,761.4844 836.0625,761.7031 836.1563,762.1094 C836.2188,762.5156 836.25,762.6406 836.3906,762.7656 C836.5313,762.9063 836.7656,763.0156 836.9844,763.0156 C837.25,763.0156 837.5156,762.875 837.6875,762.6563 C837.7969,762.5 837.8281,762.3125 837.8281,761.8906 L837.8281,760.4688 C837.8281,760.0313 837.8125,759.9063 837.7188,759.75 C837.5625,759.4844 837.2813,759.3438 836.9844,759.3438 C836.6875,759.3438 836.4844,759.4375 836.2656,759.75 L836.0938,759.6719 Z " fill="#000000"/><text fill="#000000" font-family="sans-serif" font-size="14" lengthAdjust="spacing" textLength="104" x="854.25" y="768.8467">HeroesFactory</text><line style="stroke:#181818;stroke-width:0.5;" x1="641.5" x2="1138.5" y1="780" y2="780"/><line style="stroke:#181818;stroke-width:0.5;" x1="641.5" x2="1138.5" y1="788" y2="788"/><ellipse cx="651.5" cy="801.6484" fill="#84BE84" rx="3" ry="3" style="stroke:#038048;stroke-width:1.0;"/><text fill="#000000" font-family="sans-serif" font-size="14" lengthAdjust="spacing" textLength="473" x="660.5" y="804.9951">Heroe createCreature(int type, String name, int shieldResistance)</text></g><!--class BeastsFactory--><g id="elem_BeastsFactory"><rect codeLine="154" fill="#F1F1F1" height="64.2969" id="BeastsFactory" rx="2.5" ry="2.5" style="stroke:#181818;stroke-width:0.5;" width="497" x="1174.5" y="748"/><ellipse cx="1367.75" cy="764" fill="#ADD1B2" rx="11" ry="11" style="stroke:#181818;stroke-width:1.0;"/><path d="M1370.0938,759.6719 C1369.1563,759.2344 1368.5625,759.0938 1367.6875,759.0938 C1365.0625,759.0938 1363.0625,761.1719 1363.0625,763.8906 L1363.0625,765.0156 C1363.0625,767.5938 1365.1719,769.4844 1368.0625,769.4844 C1369.2813,769.4844 1370.4375,769.1875 1371.1875,768.6406 C1371.7656,768.2344 1372.0938,767.7813 1372.0938,767.3906 C1372.0938,766.9375 1371.7031,766.5469 1371.2344,766.5469 C1371.0156,766.5469 1370.8125,766.625 1370.625,766.8125 C1370.1719,767.2969 1370.1719,767.2969 1369.9844,767.3906 C1369.5625,767.6563 1368.875,767.7813 1368.1094,767.7813 C1366.0625,767.7813 1364.7656,766.6875 1364.7656,764.9844 L1364.7656,763.8906 C1364.7656,762.1094 1366.0156,760.7969 1367.75,760.7969 C1368.3281,760.7969 1368.9375,760.9531 1369.4063,761.2031 C1369.8906,761.4844 1370.0625,761.7031 1370.1563,762.1094 C1370.2188,762.5156 1370.25,762.6406 1370.3906,762.7656 C1370.5313,762.9063 1370.7656,763.0156 1370.9844,763.0156 C1371.25,763.0156 1371.5156,762.875 1371.6875,762.6563 C1371.7969,762.5 1371.8281,762.3125 1371.8281,761.8906 L1371.8281,760.4688 C1371.8281,760.0313 1371.8125,759.9063 1371.7188,759.75 C1371.5625,759.4844 1371.2813,759.3438 1370.9844,759.3438 C1370.6875,759.3438 1370.4844,759.4375 1370.2656,759.75 L1370.0938,759.6719 Z " fill="#000000"/><text fill="#000000" font-family="sans-serif" font-size="14" lengthAdjust="spacing" textLength="102" x="1388.25" y="768.8467">BeastsFactory</text><line style="stroke:#181818;stroke-width:0.5;" x1="1175.5" x2="1670.5" y1="780" y2="780"/><line style="stroke:#181818;stroke-width:0.5;" x1="1175.5" x2="1670.5" y1="788" y2="788"/><ellipse cx="1185.5" cy="801.6484" fill="#84BE84" rx="3" ry="3" style="stroke:#038048;stroke-width:1.0;"/><text fill="#000000" font-family="sans-serif" font-size="14" lengthAdjust="spacing" textLength="471" x="1194.5" y="804.9951">Beast createCreature(int type, String name, int shieldResistance)</text></g><!--reverse link LordOfTheRings to Turn--><g id="link_LordOfTheRings_Turn"><path codeLine="160" d="M1041.73,234.01 C933.407,267.8 767.008,320.81 624,371 C618.797,372.83 613.548,374.68 608.264,376.56 " fill="none" id="LordOfTheRings-backto-Turn" style="stroke:#181818;stroke-width:1.0;"/><polygon fill="#181818" points="1054.32,230.09,1047.4034,228.0504,1042.8604,233.6505,1049.777,235.6901,1054.32,230.09" style="stroke:#181818;stroke-width:1.0;"/></g><!--reverse link LordOfTheRings to Army--><g id="link_LordOfTheRings_Army"><path codeLine="161" d="M1272.46,234.82 C1434.33,285.74 1729.06,378.45 1909.32,435.157 " fill="none" id="LordOfTheRings-backto-Army" style="stroke:#181818;stroke-width:1.0;"/><polygon fill="#181818" points="1259.61,230.78,1264.1335,236.3959,1271.0572,234.3803,1266.5337,228.7644,1259.61,230.78" style="stroke:#181818;stroke-width:1.0;"/></g><!--reverse link Army to Creature--><g id="link_Army_Creature"><path codeLine="163" d="M2126.59,576.548 C2144.56,602.269 2164.4,630.67 2183.39,657.862 " fill="none" id="Army-backto-Creature" style="stroke:#181818;stroke-width:1.0;"/><polygon fill="#181818" points="2119.02,565.7,2119.1767,572.9094,2125.8918,575.5376,2125.7351,568.3282,2119.02,565.7" style="stroke:#181818;stroke-width:1.0;"/></g><!--reverse link Creature to Heroe--><g id="link_Creature_Heroe"><path codeLine="165" d="M2268,922.437 C2268,936.161 2268,949.554 2268,961.901 " fill="none" id="Creature-backto-Heroe" style="stroke:#181818;stroke-width:1.0;"/><polygon fill="none" points="2261,922.176,2268,902.176,2275,922.176,2261,922.176" style="stroke:#181818;stroke-width:1.0;"/></g><!--reverse link Creature to Beast--><g id="link_Creature_Beast"><path codeLine="166" d="M2478.86,823.401 C2578.33,846.469 2697.6,878.613 2801,919 C2842.06,935.039 2885.47,957.548 2921.22,977.743 " fill="none" id="Creature-backto-Beast" style="stroke:#181818;stroke-width:1.0;"/><polygon fill="none" points="2477.17,830.196,2459.24,818.909,2480.3,816.55,2477.17,830.196" style="stroke:#181818;stroke-width:1.0;"/></g><!--reverse link Heroe to Human--><g id="link_Heroe_Human"><path codeLine="168" d="M2144.39,1101.561 C2117.75,1117.52 2089.35,1134.54 2061.92,1150.972 " fill="none" id="Heroe-backto-Human" style="stroke:#181818;stroke-width:1.0;"/><polygon fill="none" points="2140.86,1095.518,2161.61,1091.244,2148.05,1107.528,2140.86,1095.518" style="stroke:#181818;stroke-width:1.0;"/></g><!--reverse link Heroe to Elf--><g id="link_Heroe_Elf"><path codeLine="169" d="M2268,1111.649 C2268,1124.515 2268,1137.827 2268,1150.778 " fill="none" id="Heroe-backto-Elf" style="stroke:#181818;stroke-width:1.0;"/><polygon fill="none" points="2261,1111.244,2268,1091.244,2275,1111.244,2261,1111.244" style="stroke:#181818;stroke-width:1.0;"/></g><!--reverse link Heroe to Hobbit--><g id="link_Heroe_Hobbit"><path codeLine="170" d="M2391.96,1101.561 C2418.67,1117.52 2447.16,1134.54 2474.66,1150.972 " fill="none" id="Heroe-backto-Hobbit" style="stroke:#181818;stroke-width:1.0;"/><polygon fill="none" points="2388.27,1107.511,2374.69,1091.244,2395.45,1095.492,2388.27,1107.511" style="stroke:#181818;stroke-width:1.0;"/></g><!--reverse link Beast to Orc--><g id="link_Beast_Orc"><path codeLine="172" d="M2997.44,1095.308 C2996.57,1118.167 2995.6,1143.753 2994.73,1166.929 " fill="none" id="Beast-backto-Orc" style="stroke:#181818;stroke-width:1.0;"/><polygon fill="none" points="2990.44,1094.95,2998.19,1075.228,3004.43,1095.479,2990.44,1094.95" style="stroke:#181818;stroke-width:1.0;"/></g><!--reverse link Beast to Goblin--><g id="link_Beast_Goblin"><path codeLine="173" d="M3093.54,1085.861 C3133.74,1110.939 3181.12,1140.501 3223.48,1166.929 " fill="none" id="Beast-backto-Goblin" style="stroke:#181818;stroke-width:1.0;"/><polygon fill="none" points="3089.76,1091.754,3076.5,1075.228,3097.17,1079.876,3089.76,1091.754" style="stroke:#181818;stroke-width:1.0;"/></g><!--reverse link CombatHistory to Turn--><g id="link_CombatHistory_Turn"><path codeLine="175" d="M327,251.49 C327,285.07 327,329.78 327,370.98 " fill="none" id="CombatHistory-backto-Turn" style="stroke:#181818;stroke-width:1.0;"/><polygon fill="#181818" points="327,246.2,323,255.2,327,251.2,331,255.2,327,246.2" style="stroke:#181818;stroke-width:1.0;"/></g><!--link LordOfTheRings to AbstractCreatureFactory--><g id="link_LordOfTheRings_AbstractCreatureFactory"><path codeLine="177" d="M1157,311.14 C1157,359.58 1157,412.84 1157,447.152 " fill="none" id="LordOfTheRings-to-AbstractCreatureFactory" style="stroke:#181818;stroke-width:1.0;stroke-dasharray:7.0,7.0;"/><polygon fill="#181818" points="1157,452.491,1161,443.491,1157,447.491,1153,443.491,1157,452.491" style="stroke:#181818;stroke-width:1.0;"/></g><!--reverse link AbstractCreatureFactory to HeroesFactory--><g id="link_AbstractCreatureFactory_HeroesFactory"><path codeLine="178" d="M1114.99,531.683 C1060.13,591.983 965.57,695.93 918.432,747.746 " fill="none" id="AbstractCreatureFactory-backto-HeroesFactory" style="stroke:#181818;stroke-width:1.0;"/><polygon fill="none" points="1110.04,526.716,1128.68,516.632,1120.4,536.137,1110.04,526.716" style="stroke:#181818;stroke-width:1.0;"/></g><!--reverse link AbstractCreatureFactory to BeastsFactory--><g id="link_AbstractCreatureFactory_BeastsFactory"><path codeLine="179" d="M1198.86,531.683 C1253.51,591.983 1347.71,695.93 1394.67,747.746 " fill="none" id="AbstractCreatureFactory-backto-BeastsFactory" style="stroke:#181818;stroke-width:1.0;"/><polygon fill="none" points="1193.46,536.152,1185.21,516.632,1203.83,526.75,1193.46,536.152" style="stroke:#181818;stroke-width:1.0;"/></g><!--SRC=[xLZRSjem47ttL_YHj90lo6G6o0LcA7GIsdVPhB6cjiL8SXAQvj-hYuKbMpQqIIyFyOC7hrRQtRD7YrOx57z3MmXZafzdX6v8mbEWkDYovo0KJvmXniA565abwnJkwX7vZCOqtuTY0W7vgo6F037kojSbBK8kNhK85pna-3ku4hxVDIGinP1jxe1Xnb4HGt0O_lX0y2PamClTuAmXXIU8ImujUKm1SPX83vbqiKDX9aFpAoGuowPIgQGmBn9IARm45cuot5UWDILvXFXC14peNgQe_hAYbqO6xjB3q5so5PnQgXMIcl-LALJiGGb_ZBAup0GaLoWNXBa2bF61YL_F78Q7RsNPMY4Y90DKX0-2MybUkdJzLELHkuvSBrEyJVb2lYQG40eQYIFsXg5YZe1ZMUOHKEzwuuJ3YUiruM4fUPHW2mwM6MTDnvtCEwbpA43HVY745_TSRhFBEgrkLfL5jDciIRN8G4y8COVSvvbZqV9DQjd-xQeTRsArjZCKPNwGhyKEh8VaC_loQRnq9DUB6rTZDPdCruveTJTrlczNayMyNkMb3Xb5Z5CKSuDWvOVhmwX2eK0vk0CoznbEu3CHlrXxhBj-A1oDkO5bG1EgEV7CdNXmst0SCrKr1brwYgGf9OzNE0RMgxO5GLeJqZ7D-uQVdVgcN2xXqLfThh9HUxlF3k9Sy6Ursv422ci3nIcIElQcSoTBEZ7fvjHeIadJnmfyeROK-5kZ5ayCWTMUPIuz6XnIYN0rb1cTe5_Cj5F8_4a-LClE_Fefam2Yh0RJ_3XbQYfAyj6fBoxPAt3A71NFjTG3azHu5Kmwi1u5xNu7YdtqjvMECDyv8vn6-iFgNNplIT59JFTcv3fBF6GLqlSS_BKSp4WKOUwh6MhWFHD_9XCzTLwTnVhhl3gnUdAcJxB_eivxkRMYiST98Vqj5_zpJgY_vpVTchSaod3XGL0Fl8FOiwjQ3Ofi4Ao-fC9ETWnB-sXjDIp6gKkbPRKggZrkWozw-cQVWWi6bCyBJjIS-lJOgXyVVNP5lCrMl4gD5DyBW_PGVPOSLr6vBRgfByRuZS1HzjarAc9ne0cA8HnNzMRQgUl60eTsmbnc3CCJwUbaITy_jAtf4-pRsjAN8HvRQk0DREctiEbU9uKVHYDrK-AJgmkHG7MpyjEO3u83tXS_X5p1qP0fjuD08wMrv7dM5eYZbJEk_kA3G0UiHA8usv-wqWZhpitCXGcW6S7v-MKNTO8kIjNni9DKdRJz1000]--></g></svg>