<?xml version="1.0" encoding="UTF-8" standalone="no"?><svg xmlns="http://www.w3.org/2000/svg" xmlns:xlink="http://www.w3.org/1999/xlink" contentStyleType="text/css" height="638px" preserveAspectRatio="none" style="width:1400px;height:638px;background:#FFFFFF;" version="1.1" viewBox="0 0 1400 638" width="1400px" zoomAndPan="magnify"><defs/><g><g id="elem_LordOfTheRings"><rect fill="#F1F1F1" height="37.6094" style="stroke:#181818;stroke-width:0.5;" width="119" x="902" y="7"/><text fill="#000000" font-family="sans-serif" font-size="14" lengthAdjust="spacing" textLength="105" x="909" y="23.5332">LordOfTheRings</text><line style="stroke:#181818;stroke-width:0.5;" x1="903" x2="1020" y1="28.6094" y2="28.6094"/></g><g id="elem_creatures"><rect fill="#F1F1F1" height="37.6094" style="stroke:#181818;stroke-width:0.5;" width="74" x="748.5" y="301"/><text fill="#000000" font-family="sans-serif" font-size="14" lengthAdjust="spacing" textLength="60" x="755.5" y="317.5332">creatures</text><line style="stroke:#181818;stroke-width:0.5;" x1="749.5" x2="821.5" y1="322.6094" y2="322.6094"/></g><g id="elem_heroes"><rect fill="#F1F1F1" height="37.6094" style="stroke:#181818;stroke-width:0.5;" width="58" x="214.5" y="399"/><text fill="#000000" font-family="sans-serif" font-size="14" lengthAdjust="spacing" textLength="44" x="221.5" y="415.5332">heroes</text><line style="stroke:#181818;stroke-width:0.5;" x1="215.5" x2="271.5" y1="420.6094" y2="420.6094"/></g><g id="elem_beasts"><rect fill="#F1F1F1" height="37.6094" style="stroke:#181818;stroke-width:0.5;" width="56" x="534.5" y="399"/><text fill="#000000" font-family="sans-serif" font-size="14" lengthAdjust="spacing" textLength="42" x="541.5" y="415.5332">beasts</text><line style="stroke:#181818;stroke-width:0.5;" x1="535.5" x2="589.5" y1="420.6094" y2="420.6094"/></g><g id="elem_army"><rect fill="#F1F1F1" height="37.6094" style="stroke:#181818;stroke-width:0.5;" width="45" x="769" y="203"/><text fill="#000000" font-family="sans-serif" font-size="14" lengthAdjust="spacing" textLength="31" x="776" y="219.5332">army</text><line style="stroke:#181818;stroke-width:0.5;" x1="770" x2="813" y1="224.6094" y2="224.6094"/></g><g id="elem_throwDices"><rect fill="#F1F1F1" height="37.6094" style="stroke:#181818;stroke-width:0.5;" width="83" x="911" y="497"/><text fill="#000000" font-family="sans-serif" font-size="14" lengthAdjust="spacing" textLength="69" x="918" y="513.5332">throwDices</text><line style="stroke:#181818;stroke-width:0.5;" x1="912" x2="993" y1="518.6094" y2="518.6094"/></g><g id="elem_calculateDamageDealt"><rect fill="#F1F1F1" height="37.6094" style="stroke:#181818;stroke-width:0.5;" width="156" x="952.5" y="301"/><text fill="#000000" font-family="sans-serif" font-size="14" lengthAdjust="spacing" textLength="142" x="959.5" y="317.5332">calculateDamageDealt</text><line style="stroke:#181818;stroke-width:0.5;" x1="953.5" x2="1107.5" y1="322.6094" y2="322.6094"/></g><g id="elem_combatHistory"><rect fill="#F1F1F1" height="37.6094" style="stroke:#181818;stroke-width:0.5;" width="103" x="961" y="203"/><text fill="#000000" font-family="sans-serif" font-size="14" lengthAdjust="spacing" textLength="89" x="968" y="219.5332">combatHistory</text><line style="stroke:#181818;stroke-width:0.5;" x1="962" x2="1063" y1="224.6094" y2="224.6094"/></g><g id="elem_elf"><rect fill="#F1F1F1" height="37.6094" style="stroke:#181818;stroke-width:0.5;" width="29" x="229" y="497"/><text fill="#000000" font-family="sans-serif" font-size="14" lengthAdjust="spacing" textLength="15" x="236" y="513.5332">elf</text><line style="stroke:#181818;stroke-width:0.5;" x1="230" x2="257" y1="518.6094" y2="518.6094"/></g><g id="elem_hobbit"><rect fill="#F1F1F1" height="37.6094" style="stroke:#181818;stroke-width:0.5;" width="53" x="293" y="497"/><text fill="#000000" font-family="sans-serif" font-size="14" lengthAdjust="spacing" textLength="39" x="300" y="513.5332">hobbit</text><line style="stroke:#181818;stroke-width:0.5;" x1="294" x2="345" y1="518.6094" y2="518.6094"/></g><g id="elem_orc"><rect fill="#F1F1F1" height="37.6094" style="stroke:#181818;stroke-width:0.5;" width="34" x="597.5" y="497"/><text fill="#000000" font-family="sans-serif" font-size="14" lengthAdjust="spacing" textLength="20" x="604.5" y="513.5332">orc</text><line style="stroke:#181818;stroke-width:0.5;" x1="598.5" x2="630.5" y1="518.6094" y2="518.6094"/></g><g id="elem_goblin"><rect fill="#F1F1F1" height="37.6094" style="stroke:#181818;stroke-width:0.5;" width="52" x="381.5" y="497"/><text fill="#000000" font-family="sans-serif" font-size="14" lengthAdjust="spacing" textLength="38" x="388.5" y="513.5332">goblin</text><line style="stroke:#181818;stroke-width:0.5;" x1="382.5" x2="432.5" y1="518.6094" y2="518.6094"/></g><g id="elem_human"><rect fill="#F1F1F1" height="37.6094" style="stroke:#181818;stroke-width:0.5;" width="57" x="7" y="497"/><text fill="#000000" font-family="sans-serif" font-size="14" lengthAdjust="spacing" textLength="43" x="14" y="513.5332">human</text><line style="stroke:#181818;stroke-width:0.5;" x1="8" x2="63" y1="518.6094" y2="518.6094"/></g><g id="elem_creatureGoals"><rect fill="#F1F1F1" height="37.6094" style="stroke:#181818;stroke-width:0.5;" width="104" x="672.5" y="399"/><text fill="#000000" font-family="sans-serif" font-size="14" lengthAdjust="spacing" textLength="90" x="679.5" y="415.5332">creatureGoals</text><line style="stroke:#181818;stroke-width:0.5;" x1="673.5" x2="775.5" y1="420.6094" y2="420.6094"/></g><g id="elem_attackOpponent"><rect fill="#F1F1F1" height="37.6094" style="stroke:#181818;stroke-width:0.5;" width="115" x="667" y="497"/><text fill="#000000" font-family="sans-serif" font-size="14" lengthAdjust="spacing" textLength="101" x="674" y="513.5332">attackOpponent</text><line style="stroke:#181818;stroke-width:0.5;" x1="668" x2="781" y1="518.6094" y2="518.6094"/></g><g id="elem_defend"><rect fill="#F1F1F1" height="37.6094" style="stroke:#181818;stroke-width:0.5;" width="58" x="817.5" y="497"/><text fill="#000000" font-family="sans-serif" font-size="14" lengthAdjust="spacing" textLength="44" x="824.5" y="513.5332">defend</text><line style="stroke:#181818;stroke-width:0.5;" x1="818.5" x2="874.5" y1="518.6094" y2="518.6094"/></g><g id="elem_fury"><rect fill="#F1F1F1" height="37.6094" style="stroke:#181818;stroke-width:0.5;" width="38" x="166.5" y="595"/><text fill="#000000" font-family="sans-serif" font-size="14" lengthAdjust="spacing" textLength="24" x="173.5" y="611.5332">fury</text><line style="stroke:#181818;stroke-width:0.5;" x1="167.5" x2="203.5" y1="616.6094" y2="616.6094"/></g><g id="elem_fears"><rect fill="#F1F1F1" height="37.6094" style="stroke:#181818;stroke-width:0.5;" width="46" x="85.5" y="595"/><text fill="#000000" font-family="sans-serif" font-size="14" lengthAdjust="spacing" textLength="32" x="92.5" y="611.5332">fears</text><line style="stroke:#181818;stroke-width:0.5;" x1="86.5" x2="130.5" y1="616.6094" y2="616.6094"/></g><g id="elem_extraPower"><rect fill="#F1F1F1" height="37.6094" style="stroke:#181818;stroke-width:0.5;" width="84" x="473.5" y="595"/><text fill="#000000" font-family="sans-serif" font-size="14" lengthAdjust="spacing" textLength="70" x="480.5" y="611.5332">extraPower</text><line style="stroke:#181818;stroke-width:0.5;" x1="474.5" x2="556.5" y1="616.6094" y2="616.6094"/></g><g id="elem_heroesGoals"><rect fill="#F1F1F1" height="37.6094" style="stroke:#181818;stroke-width:0.5;" width="95" x="99" y="497"/><text fill="#000000" font-family="sans-serif" font-size="14" lengthAdjust="spacing" textLength="81" x="106" y="513.5332">heroesGoals</text><line style="stroke:#181818;stroke-width:0.5;" x1="100" x2="193" y1="518.6094" y2="518.6094"/></g><g id="elem_beastsGoals"><rect fill="#F1F1F1" height="37.6094" style="stroke:#181818;stroke-width:0.5;" width="93" x="469" y="497"/><text fill="#000000" font-family="sans-serif" font-size="14" lengthAdjust="spacing" textLength="79" x="476" y="513.5332">beastsGoals</text><line style="stroke:#181818;stroke-width:0.5;" x1="470" x2="561" y1="518.6094" y2="518.6094"/></g><g id="elem_gameGoals"><rect fill="#F1F1F1" height="37.6094" style="stroke:#181818;stroke-width:0.5;" width="86" x="1120.5" y="105"/><text fill="#000000" font-family="sans-serif" font-size="14" lengthAdjust="spacing" textLength="72" x="1127.5" y="121.5332">gameGoals</text><line style="stroke:#181818;stroke-width:0.5;" x1="1121.5" x2="1205.5" y1="126.6094" y2="126.6094"/></g><g id="elem_createHeroesArmy"><rect fill="#F1F1F1" height="37.6094" style="stroke:#181818;stroke-width:0.5;" width="131" x="1263" y="203"/><text fill="#000000" font-family="sans-serif" font-size="14" lengthAdjust="spacing" textLength="117" x="1270" y="219.5332">createHeroesArmy</text><line style="stroke:#181818;stroke-width:0.5;" x1="1264" x2="1393" y1="224.6094" y2="224.6094"/></g><g id="elem_createBeastsArmy"><rect fill="#F1F1F1" height="37.6094" style="stroke:#181818;stroke-width:0.5;" width="129" x="1099" y="203"/><text fill="#000000" font-family="sans-serif" font-size="14" lengthAdjust="spacing" textLength="115" x="1106" y="219.5332">createBeastsArmy</text><line style="stroke:#181818;stroke-width:0.5;" x1="1100" x2="1227" y1="224.6094" y2="224.6094"/></g><g id="elem_combat"><rect fill="#F1F1F1" height="37.6094" style="stroke:#181818;stroke-width:0.5;" width="60" x="857.5" y="301"/><text fill="#000000" font-family="sans-serif" font-size="14" lengthAdjust="spacing" textLength="46" x="864.5" y="317.5332">combat</text><line style="stroke:#181818;stroke-width:0.5;" x1="858.5" x2="916.5" y1="322.6094" y2="322.6094"/></g><g id="elem_turns"><rect fill="#F1F1F1" height="37.6094" style="stroke:#181818;stroke-width:0.5;" width="46" x="876.5" y="105"/><text fill="#000000" font-family="sans-serif" font-size="14" lengthAdjust="spacing" textLength="32" x="883.5" y="121.5332">turns</text><line style="stroke:#181818;stroke-width:0.5;" x1="877.5" x2="921.5" y1="126.6094" y2="126.6094"/></g><g id="elem_turnGoals"><rect fill="#F1F1F1" height="37.6094" style="stroke:#181818;stroke-width:0.5;" width="76" x="849.5" y="203"/><text fill="#000000" font-family="sans-serif" font-size="14" lengthAdjust="spacing" textLength="62" x="856.5" y="219.5332">turnGoals</text><line style="stroke:#181818;stroke-width:0.5;" x1="850.5" x2="924.5" y1="224.6094" y2="224.6094"/></g><g id="elem_lifePoints"><rect fill="#F1F1F1" height="37.6094" style="stroke:#181818;stroke-width:0.5;" width="71" x="812" y="399"/><text fill="#000000" font-family="sans-serif" font-size="14" lengthAdjust="spacing" textLength="57" x="819" y="415.5332">lifePoints</text><line style="stroke:#181818;stroke-width:0.5;" x1="813" x2="882" y1="420.6094" y2="420.6094"/></g><g id="elem_shieldResistance"><rect fill="#F1F1F1" height="37.6094" style="stroke:#181818;stroke-width:0.5;" width="121" x="918" y="399"/><text fill="#000000" font-family="sans-serif" font-size="14" lengthAdjust="spacing" textLength="107" x="925" y="415.5332">shieldResistance</text><line style="stroke:#181818;stroke-width:0.5;" x1="919" x2="1038" y1="420.6094" y2="420.6094"/></g><g id="elem_name"><rect fill="#F1F1F1" height="37.6094" style="stroke:#181818;stroke-width:0.5;" width="49" x="1074" y="399"/><text fill="#000000" font-family="sans-serif" font-size="14" lengthAdjust="spacing" textLength="35" x="1081" y="415.5332">name</text><line style="stroke:#181818;stroke-width:0.5;" x1="1075" x2="1122" y1="420.6094" y2="420.6094"/></g><!--MD5=[dadc312d5cf33dc66e0fc2f4cda14d31]
reverse link LordOfTheRings to turns--><g id="link_LordOfTheRings_turns"><path codeLine="37" d="M942.55,56.35 C932.37,72.11 920.14,91.04 911.32,104.7 " fill="none" id="LordOfTheRings-backto-turns" style="stroke:#181818;stroke-width:1.0;"/><polygon fill="#181818" points="949.84,45.06,943.2249,47.9305,943.3303,55.1408,949.9454,52.2703,949.84,45.06" style="stroke:#181818;stroke-width:1.0;"/></g><!--MD5=[c3b0b19d43fbe8976dab9cc62f856cb4]
reverse link LordOfTheRings to army--><g id="link_LordOfTheRings_army"><path codeLine="38" d="M920.59,52.34 C900.32,66.22 876.41,84.71 858.5,105 C831.57,135.51 810.15,178.51 799.29,202.67 " fill="none" id="LordOfTheRings-backto-army" style="stroke:#181818;stroke-width:1.0;"/><polygon fill="#181818" points="931.42,45.12,924.2089,45.1222,921.4374,51.7794,928.6485,51.7772,931.42,45.12" style="stroke:#181818;stroke-width:1.0;"/></g><!--MD5=[3419ed59067385e8b06b34e86c4d629b]
reverse link LordOfTheRings to gameGoals--><g id="link_LordOfTheRings_gameGoals"><path codeLine="39" d="M1011.44,50.73 C1046.64,67.46 1093.08,89.53 1125.33,104.86 " fill="none" id="LordOfTheRings-backto-gameGoals" style="stroke:#181818;stroke-width:1.0;"/><polygon fill="none" points="999.49,45.06,1003.1901,51.2495,1010.3265,50.2146,1006.6265,44.0251,999.49,45.06" style="stroke:#181818;stroke-width:1.0;"/></g><!--MD5=[737548da2b59ffbf7806b15211eb3cbe]
reverse link LordOfTheRings to combatHistory--><g id="link_LordOfTheRings_combatHistory"><path codeLine="40" d="M969.62,57.89 C980.39,98.84 999.03,169.78 1007.75,202.94 " fill="none" id="LordOfTheRings-backto-combatHistory" style="stroke:#181818;stroke-width:1.0;"/><polygon fill="#181818" points="966.3,45.25,963.9545,52.069,969.3468,56.8568,971.6923,50.0378,966.3,45.25" style="stroke:#181818;stroke-width:1.0;"/></g><!--MD5=[8be322556988da5bfc39e42c48826799]
reverse link army to creatures--><g id="link_army_creatures"><path codeLine="42" d="M789.55,254.22 C788.59,269.59 787.46,287.58 786.64,300.7 " fill="none" id="army-backto-creatures" style="stroke:#181818;stroke-width:1.0;"/><polygon fill="#181818" points="790.37,241.06,786.0019,246.7976,789.6182,253.0364,793.9862,247.2988,790.37,241.06" style="stroke:#181818;stroke-width:1.0;"/></g><!--MD5=[70c032a6838891a10851d718b155e775]
link turns to army--><g id="link_turns_army"><path codeLine="43" d="M879.19,143.06 C861.35,158.91 835.35,182.03 816.29,198.97 " fill="none" id="turns-to-army" style="stroke:#181818;stroke-width:1.0;"/><polygon fill="#181818" points="812.09,202.7,821.4677,199.6903,815.8199,199.3702,816.1401,193.7224,812.09,202.7" style="stroke:#181818;stroke-width:1.0;"/></g><!--MD5=[b020048d567103bb61f2631551c93fbe]
reverse link creatures to heroes--><g id="link_creatures_heroes"><path codeLine="44" d="M728.2,331.15 C613.47,351.47 359.13,396.52 272.81,411.81 " fill="none" id="creatures-backto-heroes" style="stroke:#181818;stroke-width:1.0;"/><polygon fill="none" points="727.33,324.19,748.25,327.6,729.77,337.98,727.33,324.19" style="stroke:#181818;stroke-width:1.0;"/></g><!--MD5=[0c6d77e072b3080e07c4515bfca8f52d]
reverse link creatures to beasts--><g id="link_creatures_beasts"><path codeLine="45" d="M729.97,344.9 C685.76,363.94 625.69,389.8 590.81,404.81 " fill="none" id="creatures-backto-beasts" style="stroke:#181818;stroke-width:1.0;"/><polygon fill="none" points="727.29,338.44,748.43,336.96,732.82,351.3,727.29,338.44" style="stroke:#181818;stroke-width:1.0;"/></g><!--MD5=[9e1009f9d7eb6bf22ee448c0ceb0fbe1]
reverse link gameGoals to createHeroesArmy--><g id="link_gameGoals_createHeroesArmy"><path codeLine="47" d="M1212.02,153.23 C1239.58,169.27 1273.28,188.87 1297.32,202.86 " fill="none" id="gameGoals-backto-createHeroesArmy" style="stroke:#181818;stroke-width:1.0;"/><polygon fill="none" points="1208.3,159.17,1194.54,143.06,1215.34,147.06,1208.3,159.17" style="stroke:#181818;stroke-width:1.0;"/></g><!--MD5=[7cbffbec06215a32b9a81a62cbcdb26f]
reverse link gameGoals to createBeastsArmy--><g id="link_gameGoals_createBeastsArmy"><path codeLine="48" d="M1163.5,163.43 C1163.5,176.98 1163.5,191.59 1163.5,202.7 " fill="none" id="gameGoals-backto-createBeastsArmy" style="stroke:#181818;stroke-width:1.0;"/><polygon fill="none" points="1156.5,163.06,1163.5,143.06,1170.5,163.06,1156.5,163.06" style="stroke:#181818;stroke-width:1.0;"/></g><!--MD5=[0cc9b419fa2f87f9aeede6144f9f2094]
reverse link turns to turnGoals--><g id="link_turns_turnGoals"><path codeLine="50" d="M895.6,156.22 C893.68,171.59 891.43,189.58 889.79,202.7 " fill="none" id="turns-backto-turnGoals" style="stroke:#181818;stroke-width:1.0;"/><polygon fill="none" points="897.24,143.06,892.5259,148.5169,895.75,154.9671,900.464,149.5102,897.24,143.06" style="stroke:#181818;stroke-width:1.0;"/></g><!--MD5=[bb240c09394e7230d809d9c144083bde]
reverse link turnGoals to combat--><g id="link_turnGoals_combat"><path codeLine="51" d="M887.5,261.43 C887.5,274.98 887.5,289.59 887.5,300.7 " fill="none" id="turnGoals-backto-combat" style="stroke:#181818;stroke-width:1.0;"/><polygon fill="none" points="880.5,261.06,887.5,241.06,894.5,261.06,880.5,261.06" style="stroke:#181818;stroke-width:1.0;"/></g><!--MD5=[76ef9f797a9edeca9263b82fe4fa7e76]
reverse link turnGoals to calculateDamageDealt--><g id="link_turnGoals_calculateDamageDealt"><path codeLine="52" d="M931.22,252.35 C954.69,268.11 982.9,287.04 1003.24,300.7 " fill="none" id="turnGoals-backto-calculateDamageDealt" style="stroke:#181818;stroke-width:1.0;"/><polygon fill="none" points="927.1,258.02,914.4,241.06,934.9,246.39,927.1,258.02" style="stroke:#181818;stroke-width:1.0;"/></g><!--MD5=[a80b43ba89a91646691413df25a895f0]
reverse link creatures to name--><g id="link_creatures_name"><path codeLine="54" d="M835.08,337.64 C836.57,338.1 838.04,338.56 839.5,339 C935.22,368.16 962.08,365.88 1056.5,399 C1062.19,401 1068.2,403.39 1073.85,405.78 " fill="none" id="creatures-backto-name" style="stroke:#181818;stroke-width:1.0;"/><polygon fill="#181818" points="822.6,333.65,827.098,339.2863,834.0308,337.302,829.5327,331.6658,822.6,333.65" style="stroke:#181818;stroke-width:1.0;"/></g><!--MD5=[90178308225e3a805c59daa5eefb80b1]
reverse link creatures to lifePoints--><g id="link_creatures_lifePoints"><path codeLine="55" d="M804.45,350.35 C814.63,366.11 826.86,385.04 835.68,398.7 " fill="none" id="creatures-backto-lifePoints" style="stroke:#181818;stroke-width:1.0;"/><polygon fill="#181818" points="797.16,339.06,797.0546,346.2703,803.6697,349.1408,803.7751,341.9305,797.16,339.06" style="stroke:#181818;stroke-width:1.0;"/></g><!--MD5=[456bda7bde265f7b82f425a153a597d4]
reverse link creatures to shieldResistance--><g id="link_creatures_shieldResistance"><path codeLine="56" d="M833.65,344.95 C867.24,361.66 911.35,383.6 942.03,398.86 " fill="none" id="creatures-backto-shieldResistance" style="stroke:#181818;stroke-width:1.0;"/><polygon fill="#181818" points="821.8,339.06,825.3931,345.3122,832.5463,344.4002,828.9532,338.148,821.8,339.06" style="stroke:#181818;stroke-width:1.0;"/></g><!--MD5=[9e72a8751010791e6383bc331cc8f9a0]
link turns to combatHistory--><g id="link_turns_combatHistory"><path codeLine="58" d="M920.75,143.06 C939.57,159.05 967.08,182.41 987.07,199.39 " fill="none" id="turns-to-combatHistory" style="stroke:#181818;stroke-width:1.0;"/><polygon fill="#181818" points="990.96,202.7,986.7106,193.8151,987.1567,199.4543,981.5174,199.9004,990.96,202.7" style="stroke:#181818;stroke-width:1.0;"/></g><!--MD5=[b96d12292e30266a63b74071434ba0f7]
reverse link heroes to elf--><g id="link_heroes_elf"><path codeLine="60" d="M243.5,457.43 C243.5,470.98 243.5,485.59 243.5,496.7 " fill="none" id="heroes-backto-elf" style="stroke:#181818;stroke-width:1.0;"/><polygon fill="none" points="236.5,457.06,243.5,437.06,250.5,457.06,236.5,457.06" style="stroke:#181818;stroke-width:1.0;"/></g><!--MD5=[34056cc19618046494f17a2a948f7aa1]
reverse link heroes to hobbit--><g id="link_heroes_hobbit"><path codeLine="61" d="M270.47,453.07 C282.11,467.77 295.26,484.38 305.01,496.7 " fill="none" id="heroes-backto-hobbit" style="stroke:#181818;stroke-width:1.0;"/><polygon fill="none" points="264.72,457.08,257.8,437.06,275.7,448.39,264.72,457.08" style="stroke:#181818;stroke-width:1.0;"/></g><!--MD5=[4d7e357f3cc28a3f814c39d028cf2851]
reverse link beasts to orc--><g id="link_beasts_orc"><path codeLine="62" d="M582,455 C589.7,469.21 598.21,484.92 604.59,496.7 " fill="none" id="beasts-backto-orc" style="stroke:#181818;stroke-width:1.0;"/><polygon fill="none" points="575.65,457.98,572.28,437.06,587.96,451.31,575.65,457.98" style="stroke:#181818;stroke-width:1.0;"/></g><!--MD5=[dc1c208831ad3ee8aead7587e021b746]
reverse link beasts to goblin--><g id="link_beasts_goblin"><path codeLine="63" d="M517.25,447.03 C490.04,463.88 456.37,484.73 433.55,498.86 " fill="none" id="beasts-backto-goblin" style="stroke:#181818;stroke-width:1.0;"/><polygon fill="none" points="513.74,440.96,534.43,436.38,521.11,452.87,513.74,440.96" style="stroke:#181818;stroke-width:1.0;"/></g><!--MD5=[94282ebaac2c17a81a9f2390e6d92801]
reverse link heroes to human--><g id="link_heroes_human"><path codeLine="64" d="M195.94,440.95 C155.24,459.73 98.01,486.15 64.04,501.83 " fill="none" id="heroes-backto-human" style="stroke:#181818;stroke-width:1.0;"/><polygon fill="none" points="193.05,434.58,214.14,432.55,198.91,447.29,193.05,434.58" style="stroke:#181818;stroke-width:1.0;"/></g><!--MD5=[f9b85d2588e5c977e7f8a3b92d8194fd]
reverse link creatures to creatureGoals--><g id="link_creatures_creatureGoals"><path codeLine="66" d="M766.85,350.35 C756.84,366.11 744.81,385.04 736.13,398.7 " fill="none" id="creatures-backto-creatureGoals" style="stroke:#181818;stroke-width:1.0;"/><polygon fill="none" points="774.03,339.06,767.4361,341.9789,767.5943,349.1883,774.1883,346.2694,774.03,339.06" style="stroke:#181818;stroke-width:1.0;"/></g><!--MD5=[789432bdd6d6f737d34efca1d79bc079]
reverse link creatureGoals to attackOpponent--><g id="link_creatureGoals_attackOpponent"><path codeLine="67" d="M724.5,457.43 C724.5,470.98 724.5,485.59 724.5,496.7 " fill="none" id="creatureGoals-backto-attackOpponent" style="stroke:#181818;stroke-width:1.0;"/><polygon fill="none" points="717.5,457.06,724.5,437.06,731.5,457.06,717.5,457.06" style="stroke:#181818;stroke-width:1.0;"/></g><!--MD5=[5ca6ee7e98bb26155ceaa4e2551d9733]
reverse link creatureGoals to defend--><g id="link_creatureGoals_defend"><path codeLine="68" d="M763.28,449.51 C783,465.03 806.31,483.38 823.24,496.7 " fill="none" id="creatureGoals-backto-defend" style="stroke:#181818;stroke-width:1.0;"/><polygon fill="none" points="758.84,454.93,747.45,437.06,767.49,443.92,758.84,454.93" style="stroke:#181818;stroke-width:1.0;"/></g><!--MD5=[40c8b237ca0c03fbaed3d76493303303]
reverse link creatureGoals to throwDices--><g id="link_creatureGoals_throwDices"><path codeLine="69" d="M785.85,444.83 C825.48,461.52 875.99,482.79 910.96,497.51 " fill="none" id="creatureGoals-backto-throwDices" style="stroke:#181818;stroke-width:1.0;"/><polygon fill="none" points="783.1,451.27,767.39,437.06,788.53,438.37,783.1,451.27" style="stroke:#181818;stroke-width:1.0;"/></g><!--MD5=[e6f4445eda73afd45ac777419df2ab7b]
reverse link heroes to heroesGoals--><g id="link_heroes_heroesGoals"><path codeLine="71" d="M211,451.16 C195.69,466.32 177.98,483.85 164.99,496.7 " fill="none" id="heroes-backto-heroesGoals" style="stroke:#181818;stroke-width:1.0;"/><polygon fill="none" points="206.12,446.15,225.26,437.06,215.96,456.1,206.12,446.15" style="stroke:#181818;stroke-width:1.0;"/></g><!--MD5=[cc8237f1a01b6a379cfd2d544e94436f]
reverse link heroesGoals to fears--><g id="link_heroesGoals_fears"><path codeLine="72" d="M131.87,553.97 C126.34,567.92 120.3,583.19 115.74,594.7 " fill="none" id="heroesGoals-backto-fears" style="stroke:#181818;stroke-width:1.0;"/><polygon fill="none" points="125.48,551.08,139.35,535.06,138.5,556.23,125.48,551.08" style="stroke:#181818;stroke-width:1.0;"/></g><!--MD5=[fe964d4ecbea98f833e38b285358d6e9]
reverse link heroesGoals to fury--><g id="link_heroesGoals_fury"><path codeLine="73" d="M161.52,553.97 C167.19,567.92 173.39,583.19 178.06,594.7 " fill="none" id="heroesGoals-backto-fury" style="stroke:#181818;stroke-width:1.0;"/><polygon fill="none" points="154.88,556.22,153.84,535.06,167.85,550.95,154.88,556.22" style="stroke:#181818;stroke-width:1.0;"/></g><!--MD5=[858c71ee33408b3e1bfbba66ca3dd496]
reverse link beasts to beastsGoals--><g id="link_beasts_beastsGoals"><path codeLine="75" d="M544.64,455.48 C537.75,469.56 530.16,485.05 524.46,496.7 " fill="none" id="beasts-backto-beastsGoals" style="stroke:#181818;stroke-width:1.0;"/><polygon fill="none" points="538.58,451.94,553.66,437.06,551.15,458.1,538.58,451.94" style="stroke:#181818;stroke-width:1.0;"/></g><!--MD5=[a0e5f496e23472e7c35a05f8636c778c]
reverse link beastsGoals to extraPower--><g id="link_beastsGoals_extraPower"><path codeLine="76" d="M515.5,555.43 C515.5,568.98 515.5,583.59 515.5,594.7 " fill="none" id="beastsGoals-backto-extraPower" style="stroke:#181818;stroke-width:1.0;"/><polygon fill="none" points="508.5,555.06,515.5,535.06,522.5,555.06,508.5,555.06" style="stroke:#181818;stroke-width:1.0;"/></g><!--MD5=[00580af1453fb1abd3b40620264080fb]
@startuml ObjectDiagram

object LordOfTheRings

object creatures
object heroes
object beasts
object army
object throwDices
object calculateDamageDealt
object combatHistory
object elf
object hobbit
object orc
object goblin
object human
object creatureGoals
object attackOpponent
object defend
object fury
object fears
object extraPower
object heroesGoals
object beastsGoals  

object gameGoals
object createHeroesArmy
object createBeastsArmy
object combat

object turns
object turnGoals

object lifePoints
object shieldResistance
object name

LordOfTheRings *- - turns
LordOfTheRings *- - army
LordOfTheRings o- - gameGoals
LordOfTheRings *- - combatHistory

army *- - creatures
turns - -> army
creatures <|- - heroes
creatures <|- - beasts

gameGoals <|- - createHeroesArmy
gameGoals <|- - createBeastsArmy

turns o- - turnGoals
turnGoals <|- - combat
turnGoals <|- - calculateDamageDealt

creatures *- - name
creatures *- - lifePoints
creatures *- - shieldResistance

turns - -> combatHistory

heroes <|- - elf
heroes <|- - hobbit
beasts <|- - orc
beasts <|- - goblin
heroes <|- - human

creatures o- - creatureGoals
creatureGoals <|- - attackOpponent 
creatureGoals <|- - defend
creatureGoals<|- - throwDices

heroes <|- - heroesGoals
heroesGoals <|- - fears
heroesGoals <|- - fury

beasts <|- - beastsGoals 
beastsGoals <|- -extraPower

@enduml

PlantUML version 1.2022.7(Mon Aug 22 11:01:30 CST 2022)
(GPL source distribution)
Java Runtime: Java(TM) SE Runtime Environment
JVM: Java HotSpot(TM) 64-Bit Server VM
Default Encoding: Cp1252
Language: en
Country: US
--></g></svg>